<?xml version="1.0" standalone="no"?>
<!DOCTYPE svg PUBLIC "-//W3C//DTD SVG 1.1//EN" "http://www.w3.org/Graphics/SVG/1.1/DTD/svg11.dtd" >
<svg xmlns="http://www.w3.org/2000/svg">
<metadata>
This is a custom SVG webfont generated by Font Squirrel.
Copyright   : Copyright c 2010 by Julia Petretta wwwjuliapetrettacom with Reserved Font Name Kreon
Designer    : Julia Petretta
Foundry     : Julia Petretta
</metadata>
<defs>
<font id="KreonBold" horiz-adv-x="1021" >
<font-face units-per-em="2048" ascent="1638" descent="-410" />
<missing-glyph horiz-adv-x="491" />
<glyph unicode=" "  horiz-adv-x="491" />
<glyph unicode="&#x09;" horiz-adv-x="491" />
<glyph unicode="&#xa0;" horiz-adv-x="491" />
<glyph unicode="!" horiz-adv-x="565" d="M119 1382l295 29l43 -78l-99 -827h-159zM143 129q0 57 41 96t97.5 39t96.5 -39t40 -96t-40 -97t-96.5 -40t-97.5 40t-41 97z" />
<glyph unicode="&#x22;" horiz-adv-x="759" d="M57 1411l252 21l35 -62l-59 -465h-154zM408 1411l251 21l35 -62l-59 -465h-154z" />
<glyph unicode="#" horiz-adv-x="1382" d="M59 520l37 70h215l82 244h-233l-37 147l37 68h307l108 323h224l28 -29l-100 -294h160l106 323h226l26 -29l-96 -294h154q12 0 12 -17v-198h-238l-80 -244h220q12 0 12 -19v-196h-301l-90 -277h-220l-32 27l82 250h-168l-92 -277h-220l-32 27l84 250h-144zM573 590h164 l80 244h-162z" />
<glyph unicode="$" horiz-adv-x="1046" d="M68 475h178l63 -239q86 -29 186.5 -29t155 47t54.5 137q0 104 -156 174q-43 20 -105.5 46t-133 63t-122.5 86q-113 104 -112 270q0 156 106 258q100 96 256 121v244h203v-236q156 -12 285 -63l30 -383h-172l-92 211q-59 23 -143 22.5t-138.5 -37.5t-54.5 -116 q0 -76 82 -127q41 -25 98.5 -50.5t127.5 -60.5q145 -74 233 -169t88 -228q0 -176 -100 -285q-88 -96 -244 -127v-319h-203v311q-154 12 -342 90z" />
<glyph unicode="%" horiz-adv-x="1685" d="M57 1059q0 158 96.5 265.5t243.5 107.5q150 0 242 -101q94 -102 94 -272q0 -158 -94 -268q-94 -109 -242 -109q-147 0 -243 109q-97 108 -97 268zM246 27l909 1388h254l21 -29l-910 -1386h-254zM295 1058q0 -77 24.5 -130.5t77 -53.5t78 53.5t25.5 130.5t-25.5 129 t-78 52t-77 -52t-24.5 -129zM952 369q0 158 96.5 265t243.5 107q150 0 240 -98q96 -104 96 -274q0 -158 -96 -269q-92 -109 -240 -108q-147 0 -243 108q-97 109 -97 269zM1190 367.5q0 -76.5 24.5 -130t76.5 -53.5t78 53.5t26 130t-26 129t-78 52.5t-76.5 -52.5t-24.5 -129z " />
<glyph unicode="&#x26;" horiz-adv-x="1454" d="M57 435q0 222 238 384q-115 168 -115 318q0 244 193 333q76 35 192 35q160 0 247 -84t87 -219q0 -219 -240 -428q25 -29 48.5 -57.5t54.5 -61.5q88 -98 153 -163q33 70 50 151h-97l-43 174h392l30 -33q-33 -238 -151 -446l-9 -16q104 -100 138 -119l90 100l155 -197 q-29 -39 -86 -74.5t-170 -35.5q-188 0 -301 113q-145 -117 -352 -117q-211 0 -348 102q-156 119 -156 341zM326 430q0 -96 67 -164q70 -70 171.5 -69.5t187.5 69.5q-129 133 -236 277l-90 112q-100 -100 -100 -225zM426 1184q0 -84 90 -219q131 121 131 223q0 49 -28.5 80.5 t-81 31.5t-82 -34.5t-29.5 -81.5z" />
<glyph unicode="'" horiz-adv-x="415" d="M61 1350l252 20l35 -61l-59 -465h-154z" />
<glyph unicode="(" horiz-adv-x="634" d="M96 594q0 295 80 577q55 190 143 349h259q-131 -248 -185 -621q-18 -141 -18 -303q0 -438 203 -928h-259q-223 467 -223 926z" />
<glyph unicode=")" horiz-adv-x="636" d="M57 -332q203 489 203 928q0 287 -67 561q-49 203 -136 363h258q92 -164 136 -316q90 -315 90 -610q0 -455 -226 -926h-258z" />
<glyph unicode="*" horiz-adv-x="751" d="M55 1026l23 66l203 67l-209 74l26 137l68 16l164 -143l-43 221l131 43l47 -49l-43 -213l170 146l102 -91l-20 -67l-213 -70l223 -73l-31 -132l-65 -18l-166 141l43 -219l-129 -43l-47 49l41 211l-166 -145zM356 1159l9 -14l22 2l8 14l-10 19l-18 -2z" />
<glyph unicode="+" horiz-adv-x="882" d="M59 643v150l15 26h276v324h178v-324h291v-176h-291v-354h-151l-27 14v340h-291z" />
<glyph unicode="," horiz-adv-x="479" d="M33 -252l104 229l-53 256l281 39q16 -66 16 -154.5t-16.5 -154t-40.5 -123.5q-45 -106 -113 -194l-172 80z" />
<glyph unicode="-" horiz-adv-x="866" d="M109 512v168l36 25h598q12 0 13 -15v-178h-647z" />
<glyph unicode="." horiz-adv-x="432" d="M78 129q0 57 41 96t97 39t96 -39t40 -96t-40 -97t-96 -40t-97 40t-41 97z" />
<glyph unicode="/" horiz-adv-x="995" d="M41 27l651 1388h262l-2 -29l-649 -1386h-256z" />
<glyph unicode="0" horiz-adv-x="1208" d="M76 702q0 477 280 650q100 61 246 61q270 0 410 -221q121 -193 121 -490q0 -295 -121 -487q-137 -223 -410 -223q-270 0 -409 223q-117 188 -117 487zM358 702q0 -205 35 -301t83 -145t127 -49t127 49t75 123q45 125 45 323q0 199 -36 298.5t-84 148.5t-127 49t-127 -49 t-75 -123q-43 -119 -43 -324z" />
<glyph unicode="1" horiz-adv-x="747" d="M41 1280l469 141l31 -18v-1213l174 -26q0 -12 -2 -37l-2 -49l-2 -76h-633l-6 168l202 31v936l-190 -35z" />
<glyph unicode="2" horiz-adv-x="1101" d="M29 1096q123 219 350 290q78 25 156.5 25t153.5 -21.5t134 -66.5q139 -106 140 -299q0 -254 -347 -612q-61 -63 -113 -113.5t-85 -83.5h383l84 225h159l-45 -440h-890l-31 166q29 35 85 93t122.5 131t137.5 156t126 167q131 190 131 295.5t-50 146.5t-110 41 q-94 0 -139 -20l-90 -213z" />
<glyph unicode="3" horiz-adv-x="1069" d="M35 1096q174 317 506 317q166 0 282 -92q139 -109 140 -287q0 -115 -62 -205q-66 -94 -168 -114q104 -23 156 -70q102 -94 102 -233q0 -199 -155 -318q-135 -102 -318 -102q-164 0 -301 53q-100 39 -166 105l146 210q66 -61 141.5 -108t158.5 -47t121.5 24.5t59.5 57.5 q31 47 31 89t-10.5 77.5t-41.5 66.5q-74 74 -243 74h-138v215h97q305 0 305 215q0 88 -62 135q-51 39 -100 39q-102 0 -139 -14l-94 -221z" />
<glyph unicode="4" horiz-adv-x="1103" d="M-10 563l579 852h301v-817h160v-215h-160v-190l154 -27v-39q0 -109 6 -127h-719v170l293 31v182h-536zM240 598h364v526z" />
<glyph unicode="5" horiz-adv-x="1058" d="M23 150l122 200q80 -96 195 -133q41 -12 93 -12t103.5 20.5t90.5 57.5q80 82 80 202q0 131 -101 207q-94 70 -252 70q-90 0 -202 -35v621l61 67h743v-217h-536v-235q37 4 110.5 4t164.5 -33t157 -94q137 -129 137 -348q0 -233 -153 -369q-147 -131 -385 -131 q-270 0 -428 158z" />
<glyph unicode="6" horiz-adv-x="1134" d="M74 717q0 297 157 493q76 94 182.5 149.5t218 56.5t180.5 -23.5t116 -57.5q70 -51 123 -131l-236 -151l-100 139q-37 10 -82 10t-91 -25.5t-87 -78.5q-92 -123 -103 -324q47 53 127 84t161 31t155.5 -25.5t134.5 -77.5q139 -121 139 -331q0 -207 -127 -336 q-123 -127 -340 -127q-276 0 -414 225q-114 191 -114 500zM387 424q61 -217 211 -217q102 0 146 67.5t44 145.5t-18 120t-47 70q-57 59 -136 59.5t-139.5 -59t-60.5 -186.5z" />
<glyph unicode="7" horiz-adv-x="931" d="M49 930v485h852l37 -53l-424 -1362h-278l-23 41l451 1120h-400l-43 -231h-172z" />
<glyph unicode="8" horiz-adv-x="1116" d="M68 377q0 129 62.5 231.5t174.5 161.5q-164 117 -164 297q0 178 140 276q117 82 284 82q166 0 283 -79q135 -94 135 -265q0 -102 -57.5 -179t-139.5 -136q131 -74 175 -127q88 -109 88 -225.5t-41 -192.5t-111 -127q-141 -104 -344 -104q-205 0 -340 96 q-145 107 -145 291zM350 405.5q0 -69.5 26.5 -109.5t61.5 -58q59 -33 105.5 -33t82.5 10t66 35q74 55 74 156q0 121 -156 200q-47 25 -96 49q-74 -49 -119 -114.5t-45 -135zM399 1084.5q0 -72.5 51.5 -124t127.5 -92.5q150 115 149 222q0 61 -40 110t-122 49t-124 -46 t-42 -118.5z" />
<glyph unicode="9" horiz-adv-x="1112" d="M55 150l146 192q137 -129 297 -135q186 6 235 227q14 72 19 158q-92 -82 -234 -82q-199 0 -313 108q-125 115 -125 320q0 207 117 336q125 141 358 141q242 0 371 -215q111 -188 110 -508q0 -299 -143 -495q-154 -205 -414 -205q-197 0 -356 106q-43 27 -68 52z M358 955.5q0 -97.5 43 -164t136 -66.5q59 0 121.5 39t91.5 110q-14 233 -117 302q-39 25 -92.5 24.5t-88 -24t-55.5 -58.5q-39 -65 -39 -162.5z" />
<glyph unicode=":" horiz-adv-x="493" d="M111 395q0 57 41 96t97 39t96 -38.5t40 -96.5q0 -57 -40 -97t-96 -40t-97 40t-41 97zM111 933q0 56 41 96t97 40t96 -40t40 -96t-40 -97t-96 -41t-97 41t-41 97z" />
<glyph unicode=";" horiz-adv-x="507" d="M49 -252l105 229l-54 256l281 39q16 -66 16 -154.5t-16 -154t-41 -123.5q-45 -106 -113 -194l-172 80zM119 605.5q0 56.5 41 96t97 39.5t96 -39.5t40 -96t-40 -97.5t-96 -41t-97 41t-41 97.5z" />
<glyph unicode="&#x3c;" horiz-adv-x="849" d="M59 571v248l670 416v-270l-463 -271l463 -272v-268z" />
<glyph unicode="=" horiz-adv-x="948" d="M111 420v203h727v-203h-727zM111 737v205h727v-205h-727z" />
<glyph unicode="&#x3e;" horiz-adv-x="849" d="M121 154v268l463 272l-463 271v270l670 -416v-248z" />
<glyph unicode="?" horiz-adv-x="878" d="M66 1014l32 358q190 66 356.5 66t266.5 -85t100 -225q0 -219 -178 -366q-113 -92 -146.5 -144.5t-33.5 -111.5l2 -23l-203 -2q-20 51 -20 125t22.5 120t55 84t71.5 69.5t72 62.5q78 76 78 148.5t-41 104.5t-84 32q-90 0 -133 -17l-52 -196h-165zM227 129q0 57 40 96 t98 39q57 0 96 -39t39 -96t-39 -97t-96 -40t-97.5 40t-40.5 97z" />
<glyph unicode="@" horiz-adv-x="1800" d="M66 658.5q0 205.5 75.5 361.5t199.5 261t281.5 158.5t321.5 53.5t309.5 -53.5t254 -150.5t171 -232t62.5 -276.5t-33 -243t-90 -175.5q-119 -158 -297 -157q-133 0 -199 65q-86 -63 -229 -63q-154 0 -268 92q-143 119 -144 332q0 240 172 360q125 86 271.5 86t253.5 -53 l55 18l67 -22v-520q0 -57 18.5 -68.5t39 -11.5t43 19.5t43.5 60.5q49 98 49 232t-39 225.5t-113 156.5q-158 139 -421 139q-250 0 -422 -155q-184 -170 -185 -443q0 -283 183 -450q170 -158 446 -158q164 0 258 43l47 -8l-73 -238q-106 -33 -271.5 -32.5t-318 55.5 t-267 162.5t-183 265.5t-68.5 363.5zM735 644q0 -128 54.5 -195.5t150.5 -67.5q59 0 115 39q-2 14 -2 26v439q-45 20 -103 20q-102 0 -158.5 -66.5t-56.5 -194.5z" />
<glyph unicode="A" horiz-adv-x="1271" d="M-10 160l112 37l406 1216h254l412 -1216l94 -37l-21 -160h-532v154l164 43l-74 249h-402l-77 -258l180 -32v-156h-490zM467 662h248l-109 460z" />
<glyph unicode="B" horiz-adv-x="1220" d="M72 1229v184h567q211 0 338 -106q121 -102 121 -265q0 -131 -82 -223q-66 -76 -148 -96q131 -35 209 -115t78 -225q0 -283 -270 -358q-84 -25 -185 -25h-587l-29 174l131 31v1009zM483 215h152q168 0 221 100q18 37 18 93q0 197 -272 196h-119v-389zM483 819h121 q106 0 159.5 53.5t53.5 122t-19.5 103.5t-52.5 57q-66 43 -170 43h-92v-379z" />
<glyph unicode="C" horiz-adv-x="1202" d="M57 684q0 340 213 545q193 186 463 186q178 0 346 -49l41 -424h-166q-43 94 -65.5 145.5t-33.5 76t-17.5 30.5t-88 6t-157.5 -33.5t-133 -97.5q-123 -139 -127 -356q4 -225 119 -365q119 -141 307 -141q84 0 168 30.5t143 90.5l86 -183q-94 -106 -285 -141 q-61 -12 -161.5 -12t-225.5 43t-219 129q-207 192 -207 520z" />
<glyph unicode="D" horiz-adv-x="1304" d="M80 180l133 27v1010l-129 16v180h365q575 0 739 -389q53 -129 53 -301q0 -348 -177 -535.5t-527 -187.5h-428zM481 215l39 -2q217 0 329 128t112 374t-123 364.5t-357 118.5v-983z" />
<glyph unicode="E" horiz-adv-x="1136" d="M80 180l133 27v1010l-129 14v182h934l39 -418h-160l-84 203h-332v-364h312v-216h-312v-403h346l76 203h162l-43 -418h-913z" />
<glyph unicode="F" horiz-adv-x="1081" d="M80 180l133 27v1010l-129 14v182h934l39 -420h-156l-88 205h-332v-364h312v-216h-312v-403l348 -53l-14 -162h-706z" />
<glyph unicode="G" horiz-adv-x="1269" d="M55 690q0 336 203 535q197 193 508 192q166 0 303 -37q35 -10 51 -14l37 -422h-166l-104 252q-55 6 -133 6t-156 -36t-135 -103q-127 -145 -127 -373q0 -219 129 -352q133 -137 377 -137q41 0 61 4v264l-211 29l37 166h442v-646q-186 -27 -361 -26.5t-306 41.5t-230 127 q-219 188 -219 530z" />
<glyph unicode="H" horiz-adv-x="1437" d="M82 182l133 27v1003l-129 15v186h500l30 -190l-133 -25v-364h461v378l-115 15v186h506l31 -190l-154 -25v-995l150 -25v-39l-2 -108v-31h-504l-31 182l119 27v409h-461v-415l129 -25v-39l2 -108v-31h-501z" />
<glyph unicode="I" horiz-adv-x="712" d="M76 182l143 27v1003l-139 15v186h532l31 -190l-156 -25v-995l152 -25v-39l-2 -108v-31h-533z" />
<glyph unicode="J" horiz-adv-x="813" d="M4 121l143 207q59 -47 101.5 -75t70.5 -28q35 0 35 54v919l-164 25l31 190h541v-186l-139 -15v-854q0 -213 -103 -301q-76 -66 -194 -65q-133 0 -263 84q-34 22 -59 45z" />
<glyph unicode="K" horiz-adv-x="1300" d="M76 182l143 27v1003l-139 11v190h518l31 -184l-142 -31v-491l412 491l-158 33v182h516v-182l-79 -17q-63 -82 -129 -157q-141 -160 -226 -256l332 -602l111 -21v-178h-324l-299 596q-80 -90 -156 -182v-211l136 -25v-39l2 -108v-31h-521z" />
<glyph unicode="L" horiz-adv-x="1073" d="M80 180l133 27v1010l-129 14v182h520l31 -186l-154 -29v-983h346l76 203h162l-43 -418h-913z" />
<glyph unicode="M" horiz-adv-x="1832" d="M92 178l121 17v1013l-113 13v192h527l295 -1048l297 1048h489l31 -190l-113 -25v-1005l105 -15v-178h-435l-18 184l90 27v1010l-342 -1194h-274l-334 1179v-1005l94 -23l2 -96v-82h-410z" />
<glyph unicode="N" horiz-adv-x="1488" d="M76 178l141 27v1003l-131 15v190h524l465 -1216v1015l-119 15v186h441l30 -190l-137 -25v-1198h-413l-445 1151v-938l105 -33v-47l-2 -106v-27h-426z" />
<glyph unicode="O" horiz-adv-x="1341" d="M74 707q0 324 153 514q160 199 445 198q287 0 442 -198q154 -193 154 -514q0 -322 -154 -514q-158 -201 -442 -201q-283 0 -445 201q-153 190 -153 514zM354 702q0 -211 86 -352q86 -143 232 -143q143 0 229 143q86 141 86 352q0 215 -86 357q-88 145 -229 145 q-143 0 -232 -145q-86 -142 -86 -357z" />
<glyph unicode="P" horiz-adv-x="1198" d="M76 176l143 29v1007l-139 15v186h512q428 0 543 -274q35 -88 34 -197q0 -225 -145 -352q-154 -135 -440 -135h-97v-222q0 -16 9.5 -19t30 -6t58.5 -7t76.5 -10.5t75.5 -11.5t62 -9l-13 -170h-682zM487 670q338 0 385 161q16 51 17 117q0 115 -69.5 182.5t-219.5 67.5 h-113v-528z" />
<glyph unicode="Q" horiz-adv-x="1341" d="M74 707q0 324 153 514q160 199 445 198q287 0 442 -198q154 -193 154 -514q0 -322 -154 -514q-158 -201 -442 -201q-283 0 -445 201q-153 190 -153 514zM354 702q0 -211 86 -352q86 -143 232 -143q143 0 229 143q86 141 86 352q0 215 -86 357q-88 145 -229 145 q-143 0 -232 -145q-86 -142 -86 -357zM530 -147l113 116l426 -155l14 -78l-192 -201z" />
<glyph unicode="R" horiz-adv-x="1253" d="M78 174l141 29v1009l-139 15v186h502q293 0 446 -129q143 -123 143 -332q0 -295 -284 -411l180 -342l129 -21v-178h-346l-213 479q-72 -6 -150 -6v-278l107 -17v-178h-498zM487 690q12 -2 31 -2h37q170 0 260 76q80 68 80 182q0 129 -84 184q-96 66 -324 66v-506z" />
<glyph unicode="S" horiz-adv-x="1081" d="M74 84l41 395l172 -14l16 -227q27 -6 73 -18.5t99 -12.5t96 9t77 29.5t53.5 52.5t19.5 75t-15.5 72.5t-48.5 54.5q-39 31 -156.5 86t-185 92t-118.5 84q-106 104 -107 270q0 172 139 283q133 102 340 102q193 0 389 -55l31 -389h-172l-100 217q-80 12 -164 12t-134 -45 t-50 -98t26.5 -85t67.5 -56q49 -31 160.5 -83.5t179 -94.5t110.5 -91q88 -96 88 -224t-45 -208t-116 -131q-135 -94 -348 -94q-189 0 -418 92z" />
<glyph unicode="T" horiz-adv-x="1259" d="M20 993l39 420h1137l45 -418h-156l-90 203h-233v-989l237 -45l-20 -164h-696l-21 164l236 45v989h-232l-88 -205h-158z" />
<glyph unicode="U" horiz-adv-x="1372" d="M43 1231v182h551v-180l-145 -23v-698q0 -154 60 -229.5t214 -75.5q258 0 258 307v700l-131 19v180h467v-186l-121 -27v-692q0 -240 -121 -378t-352 -138q-297 0 -424 135q-119 127 -119 381v704z" />
<glyph unicode="V" horiz-adv-x="1308" d="M8 1231v182h492l28 -162l-157 -34l321 -951q6 23 29 86q51 150 115 342l67 201q33 98 61.5 183t45.5 139l-187 36v160h477v-182l-75 -14l-424 -1217h-289l-430 1217z" />
<glyph unicode="W" horiz-adv-x="2017" d="M33 1229v184h499l35 -162l-143 -20l168 -938l315 1093h291l305 -1122l160 967l-172 26l22 156h510v-180l-159 -41l-226 -1192h-344l-288 1036l-279 -1036h-356l-226 1202z" />
<glyph unicode="X" horiz-adv-x="1216" d="M27 0v145l94 17l321 516l-307 532l-86 25v178h518l29 -160l-143 -30q29 -51 78 -137.5t108 -192.5l205 326l-119 36v158h457v-184l-84 -17l-340 -528q129 -223 293 -494l131 -45v-145h-555v145l116 13l-184 317l-184 -319l112 -13v-143h-460z" />
<glyph unicode="Y" horiz-adv-x="1193" d="M-4 1231v182h500l30 -162l-145 -28l254 -443l229 449l-125 22v162h453v-180l-90 -23l-365 -696v-317l236 -47l-19 -150h-698l-20 150l233 47v319l-391 694z" />
<glyph unicode="Z" horiz-adv-x="1150" d="M57 162l691 1036h-453l-39 -225h-160v440h942l41 -190q-100 -172 -293.5 -460t-254 -380t-111.5 -168h440l37 225h164v-440h-965z" />
<glyph unicode="[" horiz-adv-x="688" d="M152 -362v1824l14 25h528q14 0 15 -14v-162h-312v-1520h312v-162q0 -16 -15 -16h-528z" />
<glyph unicode="\" horiz-adv-x="995" d="M41 1413h262l651 -1386l-6 -27h-256l-649 1384z" />
<glyph unicode="]" horiz-adv-x="688" d="M-20 -188h309v1499h-309v162q0 14 12 14h528l17 -25v-1804l-17 -25h-528q-12 0 -12 17v162z" />
<glyph unicode="^" horiz-adv-x="1052" d="M168 1149l350 338h76l352 -340l-14 -25h-176l-201 140l-201 -140h-174z" />
<glyph unicode="_" horiz-adv-x="1132" d="M0 -27l23 27h1097q12 0 13 -14v-162h-1133v149z" />
<glyph unicode="`" horiz-adv-x="692" d="M117 1210l157 187l72 -35l229 -363l-83 -84z" />
<glyph unicode="a" horiz-adv-x="948" d="M59 248.5q0 105.5 47.5 167t118.5 100.5q135 70 336 74v162q0 23 -31.5 42t-74.5 19q-70 0 -86 -6l-54 -152l-254 111q41 100 148 168q113 72 248 72q236 0 321 -175q31 -61 31 -155v-461q0 -45 37 -45l31 4l36 -115q-78 -68 -163 -67q-115 0 -164 98q-98 -98 -230 -98 q-139 0 -221 78q-76 73 -76 178.5zM313 283q0 -35 22.5 -65t75 -30t93.5 31t57 66v133q-248 -12 -248 -135z" />
<glyph unicode="b" d="M2 1466l305 41l70 -71v-469q78 39 174 39t170 -34t127 -98q111 -131 110 -360q0 -279 -143 -412q-121 -111 -313 -110q-117 0 -197 43l-108 -43l-66 55v1286l-106 -6zM377 211q41 -27 125 -27t143.5 77t59.5 240t-56.5 237.5t-138.5 74.5t-133 -37v-565z" />
<glyph unicode="c" horiz-adv-x="882" d="M61 477q0 279 148 418q115 111 299 111q154 0 254 -80q51 -41 88 -103l-248 -133l-88 123q-94 0 -146.5 -88t-52.5 -238q0 -207 129 -276q45 -25 98.5 -25t90.5 11.5t66.5 27t50 32.5t32.5 28q4 -14 12.5 -39t16.5 -51.5t14 -51t11 -37.5q-111 -115 -326 -114 q-178 0 -301 114q-148 135 -148 371z" />
<glyph unicode="d" horiz-adv-x="1052" d="M63 479q0 279 150 418q117 109 291 109q74 0 139 -27v348h-104l-23 139l303 43l72 -75v-1219q0 -45 39 -45q20 0 45 12l39 -106q-35 -47 -115 -74q-31 -10 -68 -10q-115 0 -161 86q-74 -86 -217 -86q-174 0 -281 129q-109 133 -109 358zM317 456q0 -124 48.5 -197 t134.5 -73q43 0 88 29t55 72v487q-45 41 -121 41q-139 0 -186 -170q-19 -65 -19 -189z" />
<glyph unicode="e" horiz-adv-x="929" d="M61 489q0 250 148 394q123 123 309 123q141 0 240 -68q111 -78 110 -213q0 -162 -133 -246q-119 -76 -311 -76h-55q-27 0 -50 3q29 -219 248 -220q94 0 151.5 36t94.5 71l47 -178q-57 -76 -217 -111q-53 -12 -129 -12t-159 30.5t-148 92.5q-146 136 -146 374zM322 578 q10 -2 30 -3h37q150 0 207 74q20 27 20 71t-26.5 67.5t-65.5 23.5t-73.5 -18.5t-61.5 -51.5q-59 -65 -67 -163z" />
<glyph unicode="f" horiz-adv-x="735" d="M25 985l14 21h166v102q0 203 102 307q86 88 228 88q125 0 235 -82q41 -33 78 -84l-234 -141l-82 113q-47 0 -64 -26t-17 -71v-206h233q10 0 10 -13v-174h-243v-667l196 -23l-2 -129h-524l-29 129l111 27v663h-148z" />
<glyph unicode="g" horiz-adv-x="1030" d="M45 -252q0 170 158 264q-49 53 -49 143.5t75 161.5q-162 102 -161 301q0 176 129 287q117 100 273.5 100.5t268.5 -87.5l224 112l47 -6l22 -203l-190 -22q43 -82 43 -177.5t-36 -165t-93 -116.5q-113 -90 -281 -90h-29q-12 0 -24 2l-37 -55l4 -29l209 -43 q322 -68 322 -291q0 -178 -142 -289q-131 -102 -338 -102q-178 0 -288 88q-107 86 -107 217zM268 -190q0 -80 117 -109q45 -12 99.5 -12t94 8t72.5 22q72 31 72 80q0 31 -36 47.5t-90 28.5t-120.5 23.5t-128.5 31.5q-80 -50 -80 -120zM322 610.5q0 -55.5 36.5 -112 t117.5 -56.5t118 56.5t37 112t-9.5 88t-27.5 59.5q-41 55 -119 55q-113 0 -143 -115q-10 -32 -10 -87.5z" />
<glyph unicode="h" horiz-adv-x="1120" d="M37 1466l303 43l72 -75v-502q39 29 104.5 51.5t131 22.5t122.5 -16.5t100 -49.5q94 -72 95 -205v-579l112 -25l-2 -131h-461v131l103 23v524q0 127 -127 127q-84 0 -156 -55q-16 -12 -22 -21v-575l116 -23l-2 -131h-454l-25 131l117 27v1169h-107z" />
<glyph unicode="i" horiz-adv-x="589" d="M53 954l305 54l70 -74v-780l113 -23v-131h-453l-22 131l114 27v657h-104zM139 1356.5q0 60.5 44 104.5t106 44q61 0 104 -44t43 -104.5t-43 -104.5t-104 -44t-105.5 44t-44.5 104.5z" />
<glyph unicode="j" horiz-adv-x="540" d="M-55 -477l110 174q27 -27 59.5 -27t40 33t7.5 82v1030h-105l-22 139l303 54l72 -74v-1145q0 -207 -107 -289q-63 -49 -166 -49q-108 0 -192 72zM106 1356.5q0 60.5 44.5 104.5t104.5 44t104 -44t44 -104.5t-44 -104.5t-104 -44t-104.5 44t-44.5 104.5z" />
<glyph unicode="k" horiz-adv-x="1042" d="M37 1466l303 43l72 -75v-877l262 289h-109l-20 160h362l72 -134l-285 -284l219 -438l97 -23l2 -127h-310l-190 406l-100 -101v-151l96 -23l-2 -131h-434l-25 131l117 27v1169h-107z" />
<glyph unicode="l" horiz-adv-x="581" d="M33 1466l305 43l72 -75v-1272l133 -33v-129h-473l-23 129l115 29v1169h-107z" />
<glyph unicode="m" horiz-adv-x="1681" d="M53 954l303 54l72 -76q39 29 104.5 51.5t133.5 22.5q168 0 252 -97q133 96 305 97q213 0 284 -150q25 -51 25 -121v-579l104 -25l-2 -131h-465v129l115 25v524q0 127 -127 127q-84 0 -153 -55q-18 -12 -25 -21v-577l108 -21l-2 -131h-450v131l98 23v524q0 127 -127 127 q-84 0 -155 -55q-16 -12 -23 -21v-575l117 -25l-2 -129h-455l-27 129l119 29v657h-104z" />
<glyph unicode="n" horiz-adv-x="1136" d="M53 954l303 54l72 -76q39 29 104.5 51.5t131 22.5t123 -16.5t100.5 -49.5q94 -72 94 -205v-585l113 -19l-2 -131h-461v131l102 23v524q0 127 -127 127q-84 0 -155 -55q-16 -12 -23 -21v-575l117 -25l-2 -129h-455l-22 131l114 27v657h-104z" />
<glyph unicode="o" d="M59 504q0 233 142 375q127 127 309 127q184 0 311 -127q141 -141 142 -375q0 -238 -142 -381q-127 -131 -311 -131q-182 0 -309 131q-142 143 -142 381zM313 492q0 -238 121 -291q35 -16 76 -17q141 0 182 164q16 57 17 144q0 246 -123 303q-35 18 -76 18 q-137 0 -182 -174q-15 -61 -15 -147z" />
<glyph unicode="p" horiz-adv-x="1054" d="M33 956l307 50l47 -48q88 47 190.5 47.5t176 -33.5t127.5 -98q111 -131 110 -360q0 -279 -143 -412q-121 -111 -313 -110q-61 0 -123 16v-381l241 -53l-2 -133h-559l-33 129l105 31v1222l-105 -14zM412 211q39 -27 122.5 -27t143 77t59.5 240t-55 237.5t-137 74.5 t-133 -37v-565z" />
<glyph unicode="q" d="M63 477q0 289 162 428q66 59 138.5 80t121.5 21q123 0 217 -43l119 47l70 -49v-1332l113 -39v-149h-590l-23 129l252 49v430q-70 -57 -173 -57t-177 35.5t-125 99.5q-105 133 -105 350zM317 502q0 -174 62 -254q47 -61 127 -62q45 0 86 33t51 86v467q-43 43 -127 43 q-135 0 -180 -156q-19 -61 -19 -157z" />
<glyph unicode="r" horiz-adv-x="876" d="M55 952q27 4 69 12.5t85 16.5q115 23 131 25l70 -107q41 51 98 79t129 28t144.5 -42t101.5 -137l-248 -129l-62 103q-51 0 -90 -47q-53 -63 -53 -168v-383q0 -2 32 -11.5t75 -21.5q102 -31 141 -39l2 -131h-590l-31 131l123 33v657l-104 -8z" />
<glyph unicode="s" horiz-adv-x="843" d="M35 225l262 101l53 -133q18 -6 55 -6.5t55.5 5t35.5 17.5q35 25 34.5 63.5t-22 60t-52 36t-63.5 24.5t-53 21q-143 57 -200.5 132t-57.5 149.5t26.5 129t75.5 93.5q104 88 252 88q197 0 303 -134q29 -37 45 -69l-260 -105l-49 105q-20 10 -49 10q-90 0 -90 -78 q0 -31 32.5 -53.5t82 -45t107.5 -49t108 -63.5q115 -86 114 -217q0 -145 -110 -233q-104 -80 -254 -80q-139 0 -248 76q-96 65 -133 155z" />
<glyph unicode="t" horiz-adv-x="706" d="M4 985l14 21h175q2 125 2 219t2 125l219 47l18 -33v-358h207q10 0 10 -13v-174h-217v-534q0 -63 16.5 -79t47.5 -16q61 0 135 60q2 -8 10 -30.5t16 -47.5q20 -68 25 -88q-29 -31 -95.5 -61.5t-131 -30.5t-110.5 13t-81 46q-80 72 -80 232v53l4 483h-155z" />
<glyph unicode="u" horiz-adv-x="1103" d="M27 952l303 56l71 -78v-584q0 -80 38 -119t97.5 -39t106.5 33t64 74v526l-93 -6l-24 137l293 56l71 -78v-715q0 -45 33 -45l29 4l39 -115q-12 -14 -54.5 -40.5t-105.5 -26.5q-121 0 -166 98q-47 -51 -118.5 -74.5t-139.5 -23.5q-145 0 -231 74.5t-86 232.5v516h-105z" />
<glyph unicode="v" horiz-adv-x="1017" d="M-2 981l344 25l221 -746l213 574h-86l-18 147l303 25l39 -74l-342 -932h-285l-270 834h-103z" />
<glyph unicode="w" horiz-adv-x="1517" d="M10 981l312 25l141 -738l180 703h293l174 -711l143 574h-71l-17 147l267 25l45 -74l-236 -932h-321l-162 659l-164 -659h-324l-172 834h-73z" />
<glyph unicode="x" horiz-adv-x="964" d="M53 0v150h86l199 348l-197 358h-86v150h291l178 -320l162 320h225v-150h-86l-200 -350l198 -356h86v-150h-299l-164 297l-163 -297h-230z" />
<glyph unicode="y" horiz-adv-x="1019" d="M0 981l307 25l266 -762q39 109 77 212t72 195t64 183h-94l-16 149l299 23l41 -74q-33 -90 -143.5 -405.5t-147.5 -421t-68.5 -195.5t-56.5 -156.5t-45 -121t-56 -98.5t-73 -66q-49 -29 -119 -29q-90 0 -180 47q-37 18 -68 47l111 172q88 -74 121 -74t56.5 27t47.5 94 l45 123l-346 959h-78z" />
<glyph unicode="z" horiz-adv-x="862" d="M78 197l426 616h-262l-25 -139h-139v332h704v-197l-413 -610h247l25 135h141v-334h-702z" />
<glyph unicode=" {" horiz-adv-x="751" d="M4 479v168q90 0 156 49q72 53 71 140l-8 194q0 199 68 301q84 129 293 129q113 0 186 -30l-74 -238l-159 68q-41 -16 -51.5 -79t-10.5 -143l2 -166q0 -225 -108 -278q-37 -20 -88 -27l-17 -6q121 -14 167 -81.5t46 -225.5l-2 -164q0 -197 62 -221l159 70l74 -240 q-74 -31 -187.5 -31t-183 36t-108.5 95q-68 98 -68 301l8 187q0 90 -71 143q-66 49 -156 49z" />
<glyph unicode="|" horiz-adv-x="552" d="M154 -412v1823h245v-1823h-245z" />
<glyph unicode="}" horiz-adv-x="753" d="M-18 -301l75 240l160 -70q39 16 50.5 79.5t11.5 141.5l-3 164q0 158 46.5 225.5t150.5 79.5l16 6q-72 8 -107.5 27.5t-57.5 54.5q-47 72 -48 225l3 166q0 80 -10.5 142.5t-51.5 79.5l-160 -68l-75 238q80 31 190.5 30.5t181 -35t109.5 -94.5q68 -102 67 -301l-8 -194 q0 -86 72 -140q66 -49 156 -49v-168q-90 0 -156 -49q-72 -53 -72 -143l8 -187q0 -203 -67 -301q-88 -131 -293 -131q-108 0 -188 31z" />
<glyph unicode="~" horiz-adv-x="892" d="M41 1186v37q20 63 70 106q94 82 200 82t242 -86q25 -16 39 -16l110 118l166 -153q-119 -162 -247 -162q-68 0 -150 47q-31 16 -62.5 30.5t-83 14.5t-86 -34.5t-46.5 -75.5z" />
<glyph unicode="&#xa1;" horiz-adv-x="540" d="M104 -383l80 877h160l98 -828l-43 -78zM129 870q0 57 41 97.5t97.5 40.5t96 -40t39.5 -98q0 -57 -39.5 -96t-96 -39t-97.5 39t-41 96z" />
<glyph unicode="&#xa2;" horiz-adv-x="897" d="M55 486.5q0 111.5 27 200.5t70 151q84 115 221 151v422h248v-420q135 -33 204 -139q14 -20 19 -29l-248 -133l-88 123q-94 0 -146.5 -88t-52.5 -238q0 -207 129 -276q45 -25 98.5 -25t90.5 11.5t66.5 27t50 32.5t32.5 28q4 -14 12.5 -39t16.5 -51.5t14 -51t10 -37.5 q-74 -78 -208 -104v-412h-248v420q-219 63 -291 285q-27 80 -27 191.5z" />
<glyph unicode="&#xa3;" horiz-adv-x="1081" d="M51 98q25 57 96 133q131 139 170 420h-133v176l17 19h131q2 18 2 37v41l-2 116q0 197 110 295q96 82 239.5 82t289.5 -108l-187 -207l-86 98q-70 0 -88 -49q-12 -39 -12 -158v-75q0 -35 -2 -72h256q14 0 14 -17v-178h-286q-23 -209 -80 -358q72 -14 147 -41 q131 -43 158 -43l74 86l141 -225q-72 -78 -232 -78q-100 0 -197 31.5t-144.5 46t-102.5 14.5t-89 -28.5t-44 -63.5l-154 14z" />
<glyph unicode="&#xa4;" horiz-adv-x="1198" d="M90 352l160 160q-51 90 -51 200.5t53 200.5l-162 162l154 154l164 -166q94 49 192 49t193 -49l163 166l154 -154l-164 -164q55 -94 55 -201.5t-51 -197.5l160 -160l-154 -151l-157 157q-92 -51 -199.5 -51t-198.5 51l-157 -157zM412 709q0 -84 51 -136.5t136 -52.5 t136 52.5t51 136.5t-51 136t-136 52t-136 -52t-51 -136z" />
<glyph unicode="&#xa5;" horiz-adv-x="1298" d="M51 1233v182h500l31 -162l-146 -28l256 -369l228 375l-125 22v162h452v-180l-90 -23l-348 -567h203v-182h-219v-29h219v-182h-219v-55l235 -47l-18 -150h-699l-20 150l233 47v55h-239v182h239v29h-239v182h223l-375 567z" />
<glyph unicode="&#xa6;" horiz-adv-x="563" d="M158 311h248v-817h-248v817zM158 586v827h248v-827h-248z" />
<glyph unicode="&#xa7;" horiz-adv-x="1048" d="M66 -244l40 398l173 -17l18 -248q98 -25 179 -24.5t137.5 35t56.5 99t-42 102.5t-104.5 69t-136.5 61.5t-137 75.5q-145 102 -146 258q0 129 117 228q-115 106 -115 256q0 160 123 262q125 106 320 106q190 0 387 -55l31 -391h-172l-93 235q-72 16 -150.5 16.5 t-121.5 -39.5t-43 -92.5t23.5 -85t64.5 -59.5q39 -25 168 -84t183.5 -99t82.5 -81q53 -72 53.5 -183.5t-106.5 -213.5q92 -88 92 -210t-42 -196t-111 -121q-127 -88 -338 -88q-119 0 -213 26.5t-178 59.5zM383 604q0 -39 24.5 -63.5t63.5 -45t84 -38t68.5 -29.5t25.5 -12 q35 35 35 74.5t-34 67.5t-83 51.5t-82.5 38t-70.5 30.5q-31 -35 -31 -74z" />
<glyph unicode="&#xa8;" horiz-adv-x="854" d="M106 1087q0 59 41 100.5t99.5 41.5t99.5 -41t41 -101q0 -59 -41 -99t-99.5 -40t-99.5 40t-41 99zM471 1087q0 59 40 100.5t99 41.5t98.5 -41t39.5 -101q0 -59 -39 -99t-99 -40q-59 0 -99 40t-40 99z" />
<glyph unicode="&#xa9;" horiz-adv-x="1540" d="M61 764q0 145 55.5 274t152 225.5t225.5 153t274 56.5t274 -56.5t226.5 -153t154 -225.5t56.5 -274t-56.5 -274.5t-154 -225.5t-226.5 -152.5t-274 -56.5t-274 56.5t-225.5 152.5t-152 225.5t-55.5 274.5zM328 766q0 -92 34.5 -173t96.5 -142q129 -129 311 -129 q184 0 311 129q129 133 129 315q0 178 -129 311q-127 129 -311 129q-182 0 -312 -130t-130 -310zM416 760q0 176 112 284q102 98 265 99q70 0 137 -13l18 -284h-112l-31 94q-10 2 -19 2h-14q-82 0 -123 -50t-41 -127t54.5 -125t119 -48t133.5 35l72 -176q-92 -59 -181 -59.5 t-157.5 26t-120.5 74.5q-112 104 -112 268z" />
<glyph unicode="&#xaa;" horiz-adv-x="788" d="M66 1003.5q0 79.5 34.5 120.5t87.5 64q88 37 240 37v24q0 20 -13.5 46t-52.5 26q-27 0 -45 -10l-18 -47l-231 53q61 166 292 166q233 0 281 -168q14 -49 13 -78t-1 -39v-176q0 -16 4 -16h15l28 4l37 -123q-70 -59 -145.5 -59.5t-124.5 63.5q-66 -70 -184 -70 q-80 0 -144 47q-73 56 -73 135.5zM279 1044q0 -16 12 -36.5t60 -20.5t77 39v90q-149 0 -149 -72z" />
<glyph unicode="&#xab;" horiz-adv-x="960" d="M2 694l436 439l137 -138l-303 -305l301 -301l-135 -137zM360 694l396 396l137 -138l-260 -262l258 -258l-135 -137z" />
<glyph unicode="&#xac;" horiz-adv-x="1171" d="M84 768v190l20 25h926l27 -27v-409q0 -14 -17 -15h-198v236h-758z" />
<glyph unicode="&#xad;" horiz-adv-x="878" d="M-61 643v215h1001v-215h-1001z" />
<glyph unicode="&#xae;" horiz-adv-x="1540" d="M61 764q0 145 55.5 274t152 225.5t225.5 153t274 56.5t274 -56.5t226.5 -153t154 -225.5t56.5 -274t-56.5 -274.5t-154 -225.5t-226.5 -152.5t-274 -56.5t-274 56.5t-225.5 152.5t-152 225.5t-55.5 274.5zM328 766q0 -92 34.5 -173t96.5 -142q129 -129 311 -129 q184 0 311 129q129 133 129 315q0 178 -129 311q-127 129 -311 129q-182 0 -312 -130t-130 -310zM504 967v139h219q170 0 252 -74q70 -61 69.5 -177t-98.5 -177l47 -127l56 -8v-117h-203l-62 203q-18 -2 -36 -2h-39v-78l84 -23v-100h-283l-4 104l41 17v414q-31 2 -43 6z M709 776q141 0 159 55q4 16 4 45t-32.5 53.5t-130.5 24.5v-178z" />
<glyph unicode="&#xaf;" horiz-adv-x="907" d="M117 1288v199h674v-199h-674z" />
<glyph unicode="&#xb0;" horiz-adv-x="708" d="M57 1151q0 145 82 238.5t213 93.5t217 -94q82 -90 82 -234q0 -150 -82 -242q-86 -92 -218 -92t-213 92.5t-81 237.5zM272 1155q0 -150 80 -149q47 0 70 59q14 33 14 90q0 86 -39 125q-16 16 -45 16q-80 0 -80 -141z" />
<glyph unicode="&#xb1;" horiz-adv-x="927" d="M94 104v152l33 47h700v-199h-733zM94 623v151l33 47h235v238h193v-238h272v-198h-272v-240h-193v240h-268z" />
<glyph unicode="&#xb2;" horiz-adv-x="688" d="M55 1300q53 137 205 179q45 12 87 12t85 -12.5t80 -36.5q82 -57 82 -158q0 -154 -184 -264q-41 -27 -66 -43h117l37 74h108l-22 -228h-465l-35 121q18 20 67.5 59t98.5 84q129 115 129 181q0 41 -21.5 53t-38 12t-40.5 -6l-41 -84z" />
<glyph unicode="&#xb3;" horiz-adv-x="661" d="M57 907l70 140q72 -72 170 -72q37 0 59.5 18.5t22.5 50t-27.5 47t-122.5 15.5v106q117 0 131 52q4 14 4.5 29.5t-15 28.5t-37 13t-31 -3t-17.5 -5l-31 -55l-170 59q35 84 112 122t145.5 38t111.5 -13.5t76 -37.5q72 -53 72 -126t-36 -104.5t-75 -42.5q53 -14 76 -34 q49 -45 49 -107.5t-24.5 -100.5t-65.5 -61q-74 -41 -179.5 -41t-173 29.5t-94.5 54.5z" />
<glyph unicode="&#xb4;" horiz-adv-x="712" d="M106 1051l265 335l75 31l160 -223l-403 -254z" />
<glyph unicode="&#xb5;" horiz-adv-x="1150" d="M51 952l307 56l70 -70v-629q16 -121 137 -121q55 0 102.5 33t63.5 74v526l-92 -6l-23 137l291 56l72 -78v-715q0 -45 33 -45l28 4l39 -115q-12 -14 -53 -40.5t-104 -26.5q-121 0 -166 96q-88 -96 -219 -96q-49 0 -117 14q8 -49 8 -90v-477h-248v1376h-108z" />
<glyph unicode="&#x3bc;" horiz-adv-x="1150" d="M51 952l307 56l70 -70v-629q16 -121 137 -121q55 0 102.5 33t63.5 74v526l-92 -6l-23 137l291 56l72 -78v-715q0 -45 33 -45l28 4l39 -115q-12 -14 -53 -40.5t-104 -26.5q-121 0 -166 96q-88 -96 -219 -96q-49 0 -117 14q8 -49 8 -90v-477h-248v1376h-108z" />
<glyph unicode="&#xb6;" horiz-adv-x="1343" d="M55 1024q0 156 101 262q123 129 348 129h715v-205h-70v-1210h-268v1210h-109v-997q0 -55 -63 -129q-51 -61 -142 -119l-164 215l127 86v346q-217 4 -348 121q-127 111 -127 291z" />
<glyph unicode="&#xb7;" horiz-adv-x="497" d="M111 459v358h241l37 -41v-317h-278z" />
<glyph unicode="&#xb8;" horiz-adv-x="849" d="M131 -530l102 198l148 -98q76 0 115 55q14 20 14 58t-36 73t-124 35l-26 2l-50 39l70 199h211l-37 -115q145 -29 195 -139q18 -41 18 -95.5t-22.5 -102.5t-65.5 -85q-96 -80 -250 -80q-86 0 -148.5 19t-113.5 37z" />
<glyph unicode="&#xb9;" horiz-adv-x="532" d="M53 1411l305 78l35 -25l-6 -98v-428l76 -18v-97h-363l-6 92l78 17v403l-100 -16z" />
<glyph unicode="&#xba;" horiz-adv-x="724" d="M61 1155q0 170 81 251t218 81t220.5 -81t83.5 -251t-83 -254t-221 -84q-137 0 -218 84t-81 254zM276 1147.5q0 -64.5 13.5 -102t70.5 -37.5t73 37.5t16 102t-15.5 105.5t-73.5 41q-57 0 -70.5 -41t-13.5 -105.5z" />
<glyph unicode="&#xbb;" horiz-adv-x="960" d="M68 952l137 138l395 -400l-395 -395l-135 137l258 258zM387 995l137 138l437 -443l-437 -438l-135 137l301 301z" />
<glyph unicode="&#xbc;" horiz-adv-x="1550" d="M59 1364l336 98l27 -24v-658l86 -16v-119h-416v115l94 14v471l-110 -16zM258 27l651 1388h262l-2 -29l-649 -1386h-256zM807 207v164l348 448h238v-440h92v-172h-92v-72l94 -16v-119h-492l-12 100l172 29v78h-348zM1004 379h151v172z" />
<glyph unicode="&#xbd;" horiz-adv-x="1605" d="M59 1364l336 98l27 -24v-658l78 -16v-119h-408v115l94 14v471l-110 -16zM276 27l652 1388h262l-2 -29l-649 -1386h-256zM911 602q53 115 139.5 165t158 50t124.5 -11t92 -38q90 -59 91 -186q0 -100 -107 -242q-78 -102 -156 -160h138l49 125h106l-33 -307h-546l-39 141 q14 18 46 51t70.5 74t79.5 85t74 87q76 100 76 137q0 23 -13.5 36.5t-38 13.5t-34.5 -5l-37 -108z" />
<glyph unicode="&#xbe;" horiz-adv-x="1648" d="M53 1239q35 106 135 170q92 55 203 55q201 0 264 -116q25 -43 25 -102.5t-26.5 -107.5t-73.5 -67q55 -35 71 -53q43 -47 43 -114.5t-26.5 -117t-73.5 -81.5q-88 -63 -217 -64q-193 0 -301 102l117 166q41 -39 86 -57t74.5 -18t60 16t30.5 57t-25.5 60.5t-86.5 19.5 l-39 -2v150l31 -2q117 0 116 73q0 25 -19.5 45.5t-49.5 20.5q-35 0 -60 -12l-37 -103zM387 27l651 1388h262l-2 -29l-649 -1386h-256zM901 207v164l363 448h223v-440h92v-172h-92v-72l94 -16v-119h-491l-13 100l172 29v78h-348zM1098 379h151v172z" />
<glyph unicode="&#xbf;" horiz-adv-x="833" d="M45 -102q0 207 176 352q111 90 144.5 141t33.5 107v18l205 2q18 -47 18.5 -124t-21 -122t-55.5 -78.5t-72 -62.5t-73 -57q-76 -66 -75.5 -137.5t37 -105.5t83.5 -34q90 0 119 19l53 194h146l-33 -358q-66 -23 -140.5 -44.5t-171.5 -21.5t-166 26t-114 69q-94 86 -94 217z M367 870q0 57 38.5 97.5t96.5 40.5q57 0 97 -40t40 -98q0 -57 -40 -96t-97 -39t-96 39t-39 96z" />
<glyph unicode="&#xc0;" horiz-adv-x="1271" d="M-10 160l112 37l406 1218h254l412 -1218l94 -37l-21 -160h-532v154l164 43l-74 249h-402l-77 -258l180 -32v-156h-490zM397 1778l158 186l72 -35l229 -362l-84 -84zM467 662h248l-109 462z" />
<glyph unicode="&#xc1;" horiz-adv-x="1271" d="M-10 160l112 37l406 1218h254l412 -1218l94 -37l-21 -160h-532v154l164 43l-74 249h-402l-77 -258l180 -32v-156h-490zM383 1628l264 336l76 31l160 -223l-404 -254zM467 662h248l-109 462z" />
<glyph unicode="&#xc2;" horiz-adv-x="1271" d="M-10 160l112 37l406 1218h254l412 -1218l94 -37l-21 -160h-532v154l164 43l-74 249h-402l-77 -258l180 -32v-156h-490zM236 1509l350 340h76l352 -342l-17 -24h-176l-198 119l-201 -119h-174zM467 662h248l-109 462z" />
<glyph unicode="&#xc3;" horiz-adv-x="1271" d="M-10 160l112 37l406 1218h254l412 -1218l94 -37l-21 -160h-532v154l164 43l-74 249h-402l-77 -258l180 -32v-156h-490zM225 1561v38q20 63 70 107q94 82 201 82q106 0 241 -86q25 -16 39 -16l111 118l166 -155q-45 -61 -113 -110.5t-127 -49.5t-93 14.5t-64.5 31.5 t-62.5 31.5t-83 14.5t-86 -36t-47 -75zM467 662h248l-109 462z" />
<glyph unicode="&#xc4;" horiz-adv-x="1271" d="M-10 160l112 37l406 1216h254l412 -1216l94 -37l-21 -160h-532v154l164 43l-74 249h-402l-77 -258l180 -32v-156h-490zM317 1647q0 59 41 100t99.5 41t99.5 -41t41 -100t-41 -99.5t-99.5 -40.5t-99.5 40.5t-41 99.5zM467 662h248l-109 460zM682 1647q0 59 40 100t99 41 t98 -41t39 -100t-38.5 -99.5t-98.5 -40.5q-59 0 -99 40.5t-40 99.5z" />
<glyph unicode="&#xc5;" horiz-adv-x="1263" d="M-14 160l112 37l381 1146q-80 61 -80 173q0 92 62.5 154.5t154.5 62.5q94 0 154 -62q63 -68 64 -155q0 -92 -60 -152l395 -1167l95 -37l-21 -160h-532v154l163 43l-73 249h-402l-77 -258l180 -32v-156h-490zM463 662h248l-109 462zM537 1516q0 -37 20.5 -58.5t58 -21.5 t58 21.5t20.5 58.5t-20.5 58t-58 21t-58 -21t-20.5 -58z" />
<glyph unicode="&#xc6;" horiz-adv-x="1644" d="M-25 160l109 37l461 1218h981l41 -418h-162l-82 203h-332v-364h312v-215h-312v-406h346l76 203h160l-43 -418h-889l-31 180l113 27v325h-283l-129 -344l181 -32v-156h-490zM522 748h201v471l-23 2z" />
<glyph unicode="&#xc7;" horiz-adv-x="1206" d="M61 684q0 340 213 545q193 186 463 186q178 0 346 -49l41 -424h-166q-43 94 -65.5 145.5t-33.5 76t-17 30.5t-88 6t-158 -33.5t-133 -97.5q-123 -139 -123 -356q0 -225 115 -365q119 -141 307 -141q84 0 168 30.5t143 90.5l86 -183q-47 -57 -138 -97t-196 -52l-24 -80 q145 -29 194 -139q18 -41 18.5 -95.5t-22 -102.5t-65.5 -85q-96 -80 -250 -80q-86 0 -148.5 18.5t-113.5 37.5l102 198l148 -98q76 0 114 55q14 20 14.5 58t-35.5 73t-124 35l-27 2l-49 39l59 170q-244 39 -393 209q-162 184 -162 473z" />
<glyph unicode="&#xc8;" horiz-adv-x="1136" d="M80 180l133 27v1012l-129 14v182h934l39 -418h-160l-84 203h-332v-364h312v-215h-312v-406h346l76 203h162l-43 -418h-913zM348 1778l158 186l72 -35l229 -362l-84 -84z" />
<glyph unicode="&#xc9;" horiz-adv-x="1136" d="M80 180l133 27v1010l-129 14v182h934l39 -418h-160l-84 203h-332v-364h312v-216h-312v-403h346l76 203h162l-43 -418h-913zM420 1628l264 336l76 31l160 -223l-404 -254z" />
<glyph unicode="&#xca;" horiz-adv-x="1136" d="M80 180l133 27v1012l-129 14v182h934l39 -418h-160l-84 203h-332v-364h312v-215h-312v-406h346l76 203h162l-43 -418h-913zM188 1509l351 340h75l353 -342l-15 -24h-176l-201 119l-198 -119h-174z" />
<glyph unicode="&#xcb;" horiz-adv-x="1136" d="M80 180l133 27v1012l-129 14v182h934l39 -418h-160l-84 203h-332v-364h312v-215h-312v-406h346l76 203h162l-43 -418h-913zM268 1647q0 59 41 100t99.5 41t99.5 -41t41 -100t-41 -99.5t-99.5 -40.5t-99.5 40.5t-41 99.5zM633 1647q0 59 40 100t99 41t98 -41t39 -100 t-39 -99.5t-98 -40.5t-99 40.5t-40 99.5z" />
<glyph unicode="&#xcc;" horiz-adv-x="712" d="M76 182l143 27v1005l-139 15v186h532l31 -190l-156 -25v-997l152 -25v-39l-2 -108v-31h-533zM119 1778l157 186l72 -35l230 -362l-84 -84z" />
<glyph unicode="&#xcd;" horiz-adv-x="712" d="M76 182l143 27v1005l-139 15v186h532l31 -190l-156 -25v-997l152 -25v-39l-2 -108v-31h-533zM145 1628l265 336l75 31l160 -223l-403 -254z" />
<glyph unicode="&#xce;" horiz-adv-x="712" d="M-29 1509l351 340h75l353 -342l-15 -24h-176l-201 119l-200 -119h-174zM76 182l143 27v1005l-139 15v186h532l31 -190l-156 -25v-997l152 -25v-39l-2 -108v-31h-533z" />
<glyph unicode="&#xcf;" horiz-adv-x="712" d="M47 1647q0 59 41 100t99.5 41t99.5 -41t41 -100t-41 -99.5t-99.5 -40.5t-99.5 40.5t-41 99.5zM76 182l143 27v1005l-139 15v186h532l31 -190l-156 -25v-997l152 -25v-39l-2 -108v-31h-533zM412 1647q0 59 40 100t99 41t98 -41t39 -100t-39 -99.5t-98 -40.5t-99 40.5 t-40 99.5z" />
<glyph unicode="&#xd0;" horiz-adv-x="1308" d="M29 633v168l28 24h160v394l-129 16v180h367q573 0 737 -387q53 -131 53 -303q0 -346 -178 -535.5t-524 -189.5h-445l-14 180l133 27v426h-188zM485 215l39 -2q217 0 330 129t113 375q0 483 -482 483v-375h256q14 0 15 -14v-178h-271v-418z" />
<glyph unicode="&#xd1;" horiz-adv-x="1488" d="M76 178l141 27v1003l-131 15v190h524l465 -1216v1015l-119 15v186h441l30 -190l-137 -25v-1198h-413l-445 1151v-938l105 -33v-47l-2 -106v-27h-426zM334 1561v38q20 63 69 107q94 82 201 82q106 0 240 -86q27 -16 41 -16l110 118l166 -155q-45 -61 -112.5 -110.5 t-127 -49.5t-93 14.5t-64.5 31.5t-62.5 31.5t-83 14.5t-86 -36t-47.5 -75z" />
<glyph unicode="&#xd2;" horiz-adv-x="1341" d="M74 707q0 324 153 514q160 199 445 198q287 0 442 -198q154 -193 154 -514q0 -322 -154 -514q-158 -201 -442 -201q-283 0 -445 201q-153 190 -153 514zM354 702q0 -211 86 -352q86 -143 232 -143q143 0 229 143q86 141 86 352q0 215 -86 357q-88 145 -229 145 q-143 0 -232 -145q-86 -142 -86 -357zM420 1778l158 186l71 -35l230 -362l-84 -84z" />
<glyph unicode="&#xd3;" horiz-adv-x="1341" d="M74 707q0 324 153 514q160 199 445 198q287 0 442 -198q154 -193 154 -514q0 -322 -154 -514q-158 -201 -442 -201q-283 0 -445 201q-153 190 -153 514zM354 702q0 -211 86 -352q86 -143 232 -143q143 0 229 143q86 141 86 352q0 215 -86 357q-88 145 -229 145 q-143 0 -232 -145q-86 -142 -86 -357zM469 1628l264 336l76 31l160 -223l-404 -254z" />
<glyph unicode="&#xd4;" horiz-adv-x="1341" d="M74 707q0 324 153 514q160 199 445 198q287 0 442 -198q154 -193 154 -514q0 -322 -154 -514q-158 -201 -442 -201q-283 0 -445 201q-153 190 -153 514zM301 1509l350 340h76l352 -342l-14 -24h-176l-201 119l-201 -119h-174zM354 702q0 -211 86 -352q86 -143 232 -143 q143 0 229 143q86 141 86 352q0 215 -86 357q-88 145 -229 145q-143 0 -232 -145q-86 -142 -86 -357z" />
<glyph unicode="&#xd5;" horiz-adv-x="1341" d="M74 707q0 324 153 514q160 199 445 198q287 0 442 -198q154 -193 154 -514q0 -322 -154 -514q-158 -201 -442 -201q-283 0 -445 201q-153 190 -153 514zM248 1561v38q23 66 67 107q94 82 201 82q109 0 242 -86q27 -16 41 -16l108 118l166 -155q-43 -61 -110.5 -110.5 t-128 -49.5t-94 14.5t-64.5 31.5t-62.5 31.5t-83 14.5t-85 -36t-48.5 -75zM354 702q0 -211 86 -352q86 -143 232 -143q143 0 229 143q86 141 86 352q0 215 -86 357q-88 145 -229 145q-143 0 -232 -145q-86 -142 -86 -357z" />
<glyph unicode="&#xd6;" horiz-adv-x="1341" d="M74 707q0 324 153 514q160 199 445 198q287 0 442 -198q154 -193 154 -514q0 -322 -154 -514q-158 -201 -442 -201q-283 0 -445 201q-153 190 -153 514zM354 702q0 -211 86 -352q86 -143 232 -143q143 0 229 143q86 141 86 352q0 215 -86 357q-88 145 -229 145 q-143 0 -232 -145q-86 -142 -86 -357zM356 1647q0 59 41 100t99.5 41t99.5 -41t41 -100t-41 -99.5t-99.5 -40.5t-99.5 40.5t-41 99.5zM721 1647q0 59 40 100t99 41t98 -41t39 -100t-38.5 -99.5t-98.5 -40.5q-59 0 -99 40.5t-40 99.5z" />
<glyph unicode="&#xd7;" horiz-adv-x="952" d="M72 412l260 260l-260 260l143 143l260 -260l260 262l146 -143l-260 -262l260 -258l-146 -146l-260 258l-260 -260z" />
<glyph unicode="&#xd8;" horiz-adv-x="1341" d="M74 707q0 324 153 514q160 199 445 198q82 0 153 -18l68 149h260v-49l-98 -217q213 -193 213 -577q0 -322 -154 -514q-158 -201 -442 -201q-102 0 -193 28l-67 -149h-256l-9 47l109 240q-182 191 -182 549zM354 685q0 -122 37 -232l340 743q-27 8 -80 8t-111.5 -39 t-99.5 -106.5t-63.5 -159.5t-22.5 -214zM573 227q43 -20 106.5 -20t122 38t99.5 105q86 141 86 335t-59 323z" />
<glyph unicode="&#xd9;" horiz-adv-x="1372" d="M43 1233v182h551v-180l-145 -23v-700q0 -154 60 -229.5t214 -75.5q258 0 258 307v703l-131 18v180h467v-186l-121 -27v-694q0 -240 -121 -378t-352 -138q-297 0 -424 135q-119 127 -119 381v706zM434 1778l158 186l72 -35l229 -362l-84 -84z" />
<glyph unicode="&#xda;" horiz-adv-x="1372" d="M43 1233v182h551v-180l-145 -23v-700q0 -154 60 -229.5t214 -75.5q258 0 258 307v703l-131 18v180h467v-186l-121 -27v-694q0 -240 -121 -378t-352 -138q-297 0 -424 135q-119 127 -119 381v706zM506 1628l264 336l76 31l160 -223l-404 -254z" />
<glyph unicode="&#xdb;" horiz-adv-x="1372" d="M43 1233v182h551v-180l-145 -23v-700q0 -154 60 -229.5t214 -75.5q258 0 258 307v703l-131 18v180h467v-186l-121 -27v-694q0 -240 -121 -378t-352 -138q-297 0 -424 135q-119 127 -119 381v706zM309 1509l350 340h76l352 -342l-14 -24h-176l-201 119l-200 -119h-174z " />
<glyph unicode="&#xdc;" horiz-adv-x="1372" d="M43 1231v182h551v-180l-145 -23v-698q0 -154 60 -229.5t214 -75.5q258 0 258 307v700l-131 19v180h467v-186l-121 -27v-692q0 -240 -121 -378t-352 -138q-297 0 -424 135q-119 127 -119 381v704zM395 1647q0 59 41 100t99.5 41t99.5 -41t41 -100t-41 -99.5t-99.5 -40.5 t-99.5 40.5t-41 99.5zM760 1647q0 59 40 100t99 41t98 -41t39 -100t-39 -99.5t-98 -40.5t-99 40.5t-40 99.5z" />
<glyph unicode="&#xdd;" horiz-adv-x="1193" d="M-4 1233v182h500l30 -162l-145 -28l254 -443l229 449l-125 22v162h453v-180l-90 -23l-365 -698v-317l236 -47l-19 -150h-698l-20 150l233 47v319l-391 696zM475 1628l264 336l76 31l160 -223l-404 -254z" />
<glyph unicode="&#xde;" horiz-adv-x="1138" d="M82 0v182l139 27v1005l-139 15v186h534l29 -190l-153 -25v-57l73 2q268 0 414 -117q137 -113 137 -307q0 -195 -135 -305q-143 -117 -410 -117h-39q-18 0 -40 2v-98l233 -25v-178h-643zM492 514q289 0 331 125q14 39 15 82q0 98 -66 143q-82 59 -280 64v-414z" />
<glyph unicode="&#xdf;" horiz-adv-x="1150" d="M59 147l103 23v917q0 195 109.5 306.5t301.5 111.5q289 0 377 -190q33 -70 33 -165t-31.5 -154.5t-68.5 -97.5t-69 -62.5t-32 -45t8.5 -34t24.5 -27.5t43 -31.5t74 -52.5t86 -75t61 -78q41 -68 41 -153t-28.5 -147.5t-79.5 -107.5q-102 -92 -271 -92q-100 0 -159.5 19.5 t-92.5 29.5l105 248l115 -105q80 0 131 66q23 29 22.5 78t-24 87t-58.5 69.5t-76.5 60t-76.5 61.5q-82 78 -82 156t28.5 120t64.5 76.5t64.5 75.5t28.5 109.5t-42 118t-101.5 49.5t-91 -18.5t-50.5 -49.5q-37 -57 -36 -153v-1090h-336z" />
<glyph unicode="&#xe0;" horiz-adv-x="948" d="M59 280.5q0 -73.5 19.5 -124t56.5 -86.5q82 -78 221 -78q131 0 230 98q49 -98 164 -98q86 0 163 67l-36 115l-31 -4q-37 0 -37 45v461q0 170 -111 258q-90 72 -241 72q-135 0 -248 -72q-106 -68 -148 -168l254 -111l54 152q16 6 72.5 6t88 -19.5t31.5 -41.5v-162 q-328 -8 -455 -174q-47 -62 -47 -135.5zM182 1290l158 217l74 -28l258 -330l-94 -107zM313 285q0 37 24.5 62.5t61.5 41.5q57 23 162 29v-133q-16 -35 -57 -66t-93.5 -31t-75 30t-22.5 67z" />
<glyph unicode="&#xe1;" horiz-adv-x="948" d="M59 248.5q0 105.5 47.5 167t118.5 100.5q135 70 336 74v162q0 23 -31.5 42t-74.5 19q-70 0 -86 -6l-54 -152l-254 111q41 100 148 168q113 72 248 72q236 0 321 -175q31 -61 31 -155v-461q0 -45 37 -45l31 4l36 -115q-78 -68 -163 -67q-115 0 -164 98q-98 -98 -230 -98 q-139 0 -221 78q-76 73 -76 178.5zM229 1149l258 330l74 28l158 -217l-395 -248zM313 283q0 -35 22.5 -65t75 -30t93.5 31t57 66v133q-248 -12 -248 -135z" />
<glyph unicode="&#xe2;" horiz-adv-x="948" d="M59 248.5q0 105.5 47.5 167t118.5 100.5q135 70 336 74v162q0 23 -31.5 42t-74.5 19q-70 0 -86 -6l-54 -152l-254 111q41 100 148 168q113 72 248 72q236 0 321 -175q31 -61 31 -155v-461q0 -45 37 -45l31 4l36 -115q-78 -68 -163 -67q-115 0 -164 98q-98 -98 -230 -98 q-139 0 -221 78q-76 73 -76 178.5zM162 1108l274 326h66l274 -328l-12 -23h-160l-137 107l-137 -107h-158zM313 283q0 -35 22.5 -65t75 -30t93.5 31t57 66v133q-248 -12 -248 -135z" />
<glyph unicode="&#xe3;" horiz-adv-x="948" d="M59 248.5q0 105.5 47.5 167t118.5 100.5q135 70 336 74v162q0 23 -31.5 42t-74.5 19q-70 0 -86 -6l-54 -152l-254 111q41 100 148 168q113 72 248 72q236 0 321 -175q31 -61 31 -155v-461q0 -45 37 -45l31 4l36 -115q-78 -68 -163 -67q-115 0 -164 98q-98 -98 -230 -98 q-139 0 -221 78q-76 73 -76 178.5zM92 1206l2 39q41 102 146 150q41 18 89 18t85 -13.5t67.5 -28.5t53 -30.5t34.5 -17.5l74 104l152 -143q-104 -150 -207 -149q-51 0 -102.5 28.5t-79 42t-70.5 13.5t-73 -32t-40 -67zM313 283q0 -35 22.5 -65t75 -30t93.5 31t57 66v133 q-248 -12 -248 -135z" />
<glyph unicode="&#xe4;" horiz-adv-x="948" d="M59 248.5q0 105.5 47.5 167t118.5 100.5q135 70 336 74v162q0 23 -31.5 42t-74.5 19q-70 0 -86 -6l-54 -152l-254 111q41 100 148 168q113 72 248 72q236 0 321 -175q31 -61 31 -155v-461q0 -45 37 -45l31 4l36 -115q-78 -68 -163 -67q-115 0 -164 98q-98 -98 -230 -98 q-139 0 -221 78q-76 73 -76 178.5zM143 1298q0 53 37 90t90 37t90 -36.5t37 -90.5q0 -53 -36.5 -90t-90.5 -37q-53 0 -90 37t-37 90zM313 283q0 -35 22.5 -65t75 -30t93.5 31t57 66v133q-248 -12 -248 -135zM473 1298q0 53 37 90t90 37t90 -36.5t37 -90.5q0 -53 -37 -90 t-90 -37t-90 37t-37 90z" />
<glyph unicode="&#xe5;" horiz-adv-x="948" d="M59 248.5q0 105.5 47.5 167t118.5 100.5q135 70 336 74v162q0 23 -31.5 42t-74.5 19q-70 0 -86 -6l-54 -152l-254 111q41 100 148 168q113 72 248 72q236 0 321 -175q31 -61 31 -155v-461q0 -45 37 -45l31 4l36 -115q-78 -68 -163 -67q-115 0 -164 98q-98 -98 -230 -98 q-139 0 -221 78q-76 73 -76 178.5zM242 1290q0 47 16 87t45 69q63 63 155.5 63t155 -62.5t62.5 -154.5t-62.5 -154.5t-154.5 -62.5t-154.5 62.5t-62.5 152.5zM313 283q0 -35 22.5 -65t75 -30t93.5 31t57 66v133q-248 -12 -248 -135zM371 1292q0 -41 23.5 -64.5t64.5 -23.5 t64.5 23.5t23.5 64.5t-23.5 64.5t-64.5 23.5t-64.5 -23.5t-23.5 -64.5z" />
<glyph unicode="&#xe6;" horiz-adv-x="1429" d="M59 248.5q0 105.5 47.5 167t118.5 100.5q135 70 336 74v162q0 23 -31.5 42t-74.5 19q-70 0 -86 -6l-54 -152l-254 111q41 100 148 168q113 72 248 72q176 0 272 -101q119 100 293 101q135 0 235 -76q109 -82 109 -205q0 -174 -133 -254q-111 -68 -305 -68h-56 q-27 0 -49 3q12 -92 68.5 -156t167.5 -64q102 0 211 70q29 18 47 37l47 -178q-53 -70 -215 -111q-55 -12 -119 -12q-238 0 -364 162q-53 -68 -135 -115t-164 -47t-137.5 20.5t-94.5 57.5q-76 73 -76 178.5zM313 283q0 -35 22.5 -65t76 -30t94.5 32t55 67v131 q-248 -12 -248 -135zM825 578q10 -2 31 -3h37q147 0 205 74q20 27 20 71t-25.5 68.5t-64.5 24.5t-73.5 -19.5t-61.5 -52.5q-60 -65 -68 -163z" />
<glyph unicode="&#xe7;" horiz-adv-x="882" d="M63 499q0 132 41 233.5t105 162.5q117 111 301 111q154 0 256 -80q49 -41 86 -103l-248 -133l-88 123q-94 0 -146.5 -88t-52.5 -238q0 -207 129 -276q45 -25 98.5 -25t90.5 11.5t66.5 27t50 32.5t32.5 28q4 -14 12.5 -39t16.5 -51.5t14.5 -51t10.5 -37.5 q-96 -96 -267 -112l-24 -72q156 -35 155 -178q0 -84 -67.5 -140.5t-192.5 -56.5q-98 0 -186 37l70 152l112 -82q55 0 90 39q16 16 17 47q0 100 -144 100l-24 33l43 127q-244 51 -326 283q-31 84 -31 216z" />
<glyph unicode="&#xe8;" horiz-adv-x="929" d="M61 489q0 -238 146 -374q131 -123 319 -123q113 0 215 43q84 35 119 80l-47 178q-37 -35 -94 -71t-135 -36t-123 17.5t-74 46.5q-55 55 -68 156q23 -2 50 -3h55q193 0 311 76q133 84 133 246q0 135 -110 213q-98 68 -250 68q-72 0 -154 -30t-145 -93q-148 -144 -148 -394 zM209 1290l158 217l73 -28l258 -330l-94 -107zM322 578q8 98 67 163q59 70 133 70q41 0 67.5 -23.5t26.5 -67.5t-20.5 -70.5t-52.5 -43.5q-61 -31 -154 -31h-37q-20 1 -30 3z" />
<glyph unicode="&#xe9;" horiz-adv-x="929" d="M61 489q0 250 148 394q123 123 309 123q141 0 240 -68q111 -78 110 -213q0 -162 -133 -246q-119 -76 -311 -76h-55q-27 0 -50 3q29 -219 248 -220q94 0 151.5 36t94.5 71l47 -178q-57 -76 -217 -111q-53 -12 -129 -12t-159 30.5t-148 92.5q-146 136 -146 374zM276 1149 l259 330l73 28l158 -217l-395 -248zM322 578q10 -2 30 -3h37q150 0 207 74q20 27 20 71t-26.5 67.5t-65.5 23.5t-73.5 -18.5t-61.5 -51.5q-59 -65 -67 -163z" />
<glyph unicode="&#xea;" horiz-adv-x="929" d="M61 489q0 250 148 394q123 123 309 123q141 0 240 -68q111 -78 110 -213q0 -162 -133 -246q-119 -76 -311 -76h-55q-27 0 -50 3q29 -219 248 -220q94 0 151.5 36t94.5 71l47 -178q-57 -76 -217 -111q-53 -12 -129 -12t-159 30.5t-148 92.5q-146 136 -146 374zM211 1108 l272 326h68l274 -328l-12 -23h-160l-137 107l-137 -107h-158zM322 578q10 -2 30 -3h37q150 0 207 74q20 27 20 71t-26.5 67.5t-65.5 23.5t-73.5 -18.5t-61.5 -51.5q-59 -65 -67 -163z" />
<glyph unicode="&#xeb;" horiz-adv-x="929" d="M61 489q0 250 148 394q123 123 309 123q141 0 240 -68q111 -78 110 -213q0 -162 -133 -246q-119 -76 -311 -76h-55q-27 0 -50 3q29 -219 248 -220q94 0 151.5 36t94.5 71l47 -178q-57 -76 -217 -111q-53 -12 -129 -12t-159 30.5t-148 92.5q-146 136 -146 374zM209 1298 q0 53 37 90t90 37t90 -36.5t37 -90.5q0 -53 -37 -90t-90 -37t-90 37t-37 90zM322 578q10 -2 30 -3h37q150 0 207 74q20 27 20 71t-26.5 67.5t-65.5 23.5t-73.5 -18.5t-61.5 -51.5q-59 -65 -67 -163zM539 1298q0 53 36.5 90t90.5 37q53 0 90 -36.5t37 -90.5q0 -53 -37 -90 t-90 -37t-90 37t-37 90z" />
<glyph unicode="&#xec;" horiz-adv-x="589" d="M45 1290l158 217l73 -28l259 -330l-95 -107zM53 954l23 -139h104v-657l-114 -27l22 -131h453v131l-113 23v780l-70 74z" />
<glyph unicode="&#xed;" horiz-adv-x="589" d="M53 954l305 54l70 -74v-780l113 -23v-131h-453l-22 131l114 27v657h-104zM53 1149l258 330l74 28l158 -217l-396 -248z" />
<glyph unicode="&#xee;" horiz-adv-x="589" d="M-8 1108l272 326h68l274 -328l-12 -23h-160l-137 107l-137 -107h-158zM53 954l305 54l70 -74v-780l113 -23v-131h-453l-22 131l114 27v657h-104z" />
<glyph unicode="&#xef;" horiz-adv-x="589" d="M-8 1298q0 53 37 90t90 37t90 -36.5t37 -90.5q0 -53 -37 -90t-90 -37t-90 37t-37 90zM53 954l305 54l70 -74v-780l113 -23v-131h-453l-22 131l114 27v657h-104zM301 1298q0 53 37 90t90 37t90 -36.5t37 -90.5q0 -53 -37 -90t-90 -37t-90 37t-37 90z" />
<glyph unicode="&#xf0;" horiz-adv-x="1116" d="M59 446q0 213 117 349.5t307 136.5q172 0 273 -96q-49 137 -176 241l-232 -137l-76 137l144 115q-51 29 -144 68l107 247q152 -57 262 -137l170 135l135 -209l-129 -77q227 -246 227 -551q0 -244 -96 -430q-80 -150 -235 -213q-82 -33 -189.5 -33t-193.5 37t-146 98 q-125 133 -125 319zM317 461q0 -100 60 -174q68 -80 162 -80q213 0 241 313q-14 106 -90 162q-63 47 -136 47t-117 -23.5t-70 -62.5q-50 -69 -50 -182z" />
<glyph unicode="&#xf1;" horiz-adv-x="1136" d="M53 954l303 54l72 -76q39 29 104.5 51.5t131 22.5t123 -16.5t100.5 -49.5q94 -72 94 -205v-585l113 -19l-2 -131h-461v131l102 23v524q0 127 -127 127q-84 0 -155 -55q-16 -12 -23 -21v-575l117 -25l-2 -129h-455l-22 131l114 27v657h-104zM250 1208l2 39q41 102 145 150 q43 18 90.5 18t84 -13t67.5 -28.5t53.5 -31t34.5 -17.5l76 105l149 -144q-104 -150 -204 -149q-49 0 -102.5 28.5t-81 42t-70.5 13.5t-73 -32t-40 -67z" />
<glyph unicode="&#xf2;" d="M59 504q0 -238 142 -381q127 -131 309 -131q184 0 311 131q141 143 142 381q0 233 -142 375q-127 127 -311 127q-182 0 -309 -127q-142 -142 -142 -375zM240 1290l157 217l74 -28l258 -330l-94 -107zM313 492q0 244 121 303q35 18 76 18q139 0 182 -174q16 -61 17 -147 q0 -240 -123 -291q-35 -16 -76 -17q-139 0 -182 164q-15 58 -15 144z" />
<glyph unicode="&#xf3;" d="M59 504q0 233 142 375q127 127 309 127q184 0 311 -127q141 -141 142 -375q0 -238 -142 -381q-127 -131 -311 -131q-182 0 -309 131q-142 143 -142 381zM293 1149l258 330l74 28l157 -217l-395 -248zM313 492q0 -238 121 -291q35 -16 76 -17q141 0 182 164q16 57 17 144 q0 246 -123 303q-35 18 -76 18q-137 0 -182 -174q-15 -61 -15 -147z" />
<glyph unicode="&#xf4;" d="M59 504q0 233 142 375q127 127 309 127q184 0 311 -127q141 -141 142 -375q0 -238 -142 -381q-127 -131 -311 -131q-182 0 -309 131q-142 143 -142 381zM197 1108l272 326h68l274 -328l-12 -23h-160l-137 107l-137 -107h-158zM313 492q0 -238 121 -291q35 -16 76 -17 q141 0 182 164q16 57 17 144q0 246 -123 303q-35 18 -76 18q-137 0 -182 -174q-15 -61 -15 -147z" />
<glyph unicode="&#xf5;" d="M59 504q0 233 142 375q127 127 309 127q184 0 311 -127q141 -141 142 -375q0 -238 -142 -381q-127 -131 -311 -131q-182 0 -309 131q-142 143 -142 381zM190 1206l3 39q41 102 145 150q41 18 89 18t85 -13.5t67.5 -28.5t53 -30.5t35.5 -17.5l73 104l152 -143 q-104 -150 -207 -149q-51 0 -102.5 28.5t-79 42t-70.5 13.5t-72.5 -32t-39.5 -67zM313 492q0 -238 121 -291q35 -16 76 -17q141 0 182 164q16 57 17 144q0 246 -123 303q-35 18 -76 18q-137 0 -182 -174q-15 -61 -15 -147z" />
<glyph unicode="&#xf6;" d="M59 504q0 233 142 375q127 127 309 127q184 0 311 -127q141 -141 142 -375q0 -238 -142 -381q-127 -131 -311 -131q-182 0 -309 131q-142 143 -142 381zM215 1298q0 53 37 90t90 37t90 -36.5t37 -90.5q0 -53 -37 -90t-90 -37t-90 37t-37 90zM313 492q0 -238 121 -291 q35 -16 76 -17q141 0 182 164q16 57 17 144q0 246 -123 303q-35 18 -76 18q-137 0 -182 -174q-15 -61 -15 -147zM547 1298q0 53 37 90t90 37t90 -36.5t37 -90.5q0 -53 -37 -90t-90 -37t-90 37t-37 90z" />
<glyph unicode="&#xf7;" horiz-adv-x="858" d="M66 397v205h727v-205h-727zM279 172q0 57 39.5 96t97.5 39q57 0 96 -39t39 -96t-39 -97t-96 -40t-97 40t-40 97zM279 830.5q0 56.5 39.5 95.5t97.5 39q57 0 96 -39t39 -95.5t-39 -97.5t-96 -41t-97 41t-40 97.5z" />
<glyph unicode="&#xf8;" d="M59 504q0 233 142 375q127 127 309 127q37 0 74 -7l82 199h241l-2 -27l-110 -270q168 -139 168 -397q0 -238 -142 -381q-127 -131 -311 -131q-41 0 -82 8l-86 -215h-236l-6 27l119 292q-160 146 -160 400zM313 497q0 -81 13 -132l182 448q-135 0 -180 -174 q-15 -61 -15 -142zM510 184q141 0 182 164q16 57 16.5 144.5t-18.5 152.5z" />
<glyph unicode="&#xf9;" horiz-adv-x="1103" d="M27 952l22 -137h105v-516q0 -158 86 -232.5t231 -74.5q68 0 139.5 23.5t118.5 74.5q45 -98 166 -98q63 0 105 26.5t55 40.5l-39 115l-29 -4q-33 0 -33 45v715l-71 78l-293 -56l24 -137l93 6v-526q-16 -41 -63.5 -74t-107 -33t-97.5 39t-38 119v584l-71 78zM227 1290 l158 217l74 -28l258 -330l-94 -107z" />
<glyph unicode="&#xfa;" horiz-adv-x="1103" d="M27 952l303 56l71 -78v-584q0 -80 38 -119t97.5 -39t106.5 33t64 74v526l-93 -6l-24 137l293 56l71 -78v-715q0 -45 33 -45l29 4l39 -115q-12 -14 -54.5 -40.5t-105.5 -26.5q-121 0 -166 98q-47 -51 -118.5 -74.5t-139.5 -23.5q-145 0 -231 74.5t-86 232.5v516h-105z M281 1149l258 330l73 28l158 -217l-395 -248z" />
<glyph unicode="&#xfb;" horiz-adv-x="1103" d="M27 952l303 56l71 -78v-584q0 -80 38 -119t97.5 -39t106.5 33t64 74v526l-93 -6l-24 137l293 56l71 -78v-715q0 -45 33 -45l29 4l39 -115q-12 -14 -54.5 -40.5t-105.5 -26.5q-121 0 -166 98q-47 -51 -118.5 -74.5t-139.5 -23.5q-145 0 -231 74.5t-86 232.5v516h-105z M229 1108l273 326h67l275 -328l-13 -23h-159l-137 107l-138 -107h-157z" />
<glyph unicode="&#xfc;" horiz-adv-x="1103" d="M27 952l303 56l71 -78v-584q0 -80 38 -119t97.5 -39t106.5 33t64 74v526l-93 -6l-24 137l293 56l71 -78v-715q0 -45 33 -45l29 4l39 -115q-12 -14 -54.5 -40.5t-105.5 -26.5q-121 0 -166 98q-47 -51 -118.5 -74.5t-139.5 -23.5q-145 0 -231 74.5t-86 232.5v516h-105z M248 1298q0 53 37 90t90 37t90 -36.5t37 -90.5q0 -53 -37 -90t-90 -37t-90 37t-37 90zM580 1298q0 53 36.5 90t90.5 37q53 0 90 -36.5t37 -90.5q0 -53 -37 -90t-90 -37t-90 37t-37 90z" />
<glyph unicode="&#xfd;" d="M0 981l307 25l266 -762q39 109 77 212t72 195t64 183h-94l-16 149l299 23l41 -74q-33 -90 -143.5 -405.5t-147.5 -421t-68.5 -195.5t-56.5 -156.5t-45 -121t-56 -98.5t-73 -66q-49 -29 -119 -29q-90 0 -180 47q-37 18 -68 47l111 172q88 -74 121 -74t56.5 27t47.5 94 l45 123l-346 959h-78zM252 1149l258 330l74 28l157 -217l-395 -248z" />
<glyph unicode="&#xfe;" horiz-adv-x="1026" d="M6 1466l305 41l70 -71v-469q78 39 174 39t170 -34t127 -98q111 -131 111 -360q0 -279 -144 -412q-121 -111 -313 -110q-61 0 -129 14l4 -20v-359l244 -53v-133h-582l-12 129l104 31v1726h-106zM381 211q41 -27 125 -27t143.5 77t59.5 240t-56.5 237.5t-138.5 74.5 t-133 -37v-565z" />
<glyph unicode="&#xff;" d="M0 981l307 25l266 -762q39 109 77 212t72 195t64 183h-94l-16 149l299 23l41 -74q-33 -90 -143.5 -405.5t-147.5 -421t-68.5 -195.5t-56.5 -156.5t-45 -121t-56 -98.5t-73 -66q-49 -29 -119 -29q-90 0 -180 47q-37 18 -68 47l111 172q88 -74 121 -74t56.5 27t47.5 94 l45 123l-346 959h-78zM225 1298q0 53 37 90t90 37t90 -36.5t37 -90.5q0 -53 -36.5 -90t-90.5 -37q-53 0 -90 37t-37 90zM555 1298q0 53 37 90t90 37t90 -36.5t37 -90.5q0 -53 -37 -90t-90 -37t-90 37t-37 90z" />
<glyph unicode="&#x152;" horiz-adv-x="1800" d="M74 707q0 311 166 512q162 197 411 196h1030l39 -418h-159l-84 203h-332v-364h311v-215h-311v-406h346l76 203h162l-43 -418h-914l-100 -2q-285 0 -445 199q-153 188 -153 510zM354 702q0 -346 195 -452q68 -37 135 -37q131 0 193 51v887q-49 49 -150.5 49t-169.5 -38 t-113 -105q-90 -136 -90 -355z" />
<glyph unicode="&#x153;" horiz-adv-x="1576" d="M59 504q0 233 142 375q127 127 315.5 127t319.5 -144q131 143 329 144q141 0 240 -68q111 -78 111 -213q0 -162 -134 -246q-119 -76 -311 -76h-55q-27 0 -49 3q29 -219 247 -220q94 0 151.5 36t94.5 71l47 -178q-57 -76 -217 -111q-53 -12 -116 -12q-207 0 -343 143 q-131 -143 -321 -143q-182 0 -309 131q-142 143 -142 381zM313 492q0 -238 121 -291q35 -16 76 -17q141 0 182 164q16 57 17 144q0 246 -123 303q-35 18 -76 18q-137 0 -182 -174q-15 -61 -15 -147zM969 578q10 -2 30 -3h37q150 0 207 74q20 27 20.5 71t-26.5 67.5 t-65.5 23.5t-73.5 -18.5t-62 -51.5q-59 -65 -67 -163z" />
<glyph unicode="&#x178;" horiz-adv-x="1193" d="M274 1681q0 59 41 100.5t99.5 41.5t99.5 -41t41 -101q0 -59 -41 -99t-99.5 -40t-99.5 40t-41 99zM639 1681q0 59 40 100.5t99 41.5t98.5 -41t39.5 -101q0 -59 -39 -99t-99 -40q-59 0 -99 40t-40 99zM-4 1231v182h500l30 -162l-145 -28l254 -443l229 449l-125 22v162h453 v-180l-90 -23l-365 -696v-317l236 -47l-19 -150h-698l-20 150l233 47v319l-391 694z" />
<glyph unicode="&#x2c6;" horiz-adv-x="1052" d="M168 1149l350 338h76l352 -340l-14 -25h-176l-201 140l-201 -140h-174z" />
<glyph unicode="&#x2000;" horiz-adv-x="997" />
<glyph unicode="&#x2001;" horiz-adv-x="1994" />
<glyph unicode="&#x2002;" horiz-adv-x="997" />
<glyph unicode="&#x2003;" horiz-adv-x="1994" />
<glyph unicode="&#x2004;" horiz-adv-x="663" />
<glyph unicode="&#x2005;" horiz-adv-x="497" />
<glyph unicode="&#x2006;" horiz-adv-x="331" />
<glyph unicode="&#x2007;" horiz-adv-x="331" />
<glyph unicode="&#x2008;" horiz-adv-x="247" />
<glyph unicode="&#x2009;" horiz-adv-x="397" />
<glyph unicode="&#x200a;" horiz-adv-x="110" />
<glyph unicode="&#x2010;" horiz-adv-x="866" d="M109 512v168l36 25h598q12 0 13 -15v-178h-647z" />
<glyph unicode="&#x2011;" horiz-adv-x="866" d="M109 512v168l36 25h598q12 0 13 -15v-178h-647z" />
<glyph unicode="&#x2012;" horiz-adv-x="866" d="M109 512v168l36 25h598q12 0 13 -15v-178h-647z" />
<glyph unicode="&#x2013;" horiz-adv-x="974" d="M109 616v195h759v-195h-759z" />
<glyph unicode="&#x2014;" horiz-adv-x="1282" d="M109 616v195h1067v-195h-1067z" />
<glyph unicode="&#x2018;" horiz-adv-x="448" d="M76 1100q0 49 10 108.5t27 114.5q31 100 77 182l181 -57l8 -21l-72 -262l84 -245l-266 -97q-27 66 -38 147t-11 130z" />
<glyph unicode="&#x2019;" horiz-adv-x="450" d="M49 944l105 250l-54 256l277 61q20 -82 20 -174t-16 -160.5t-41 -132.5q-47 -119 -113 -202l-172 80z" />
<glyph unicode="&#x201a;" horiz-adv-x="485" d="M45 -211l105 250l-76 317l276 62q43 -172 43 -250t-16.5 -146.5t-40.5 -132.5q-47 -119 -113 -202l-172 80z" />
<glyph unicode="&#x201c;" horiz-adv-x="821" d="M76 1032q0 47 14 119t37 139q41 129 98 215l176 -71l9 -23l-97 -291l95 -338l-273 -73q-18 37 -38.5 156.5t-20.5 166.5zM430 1048.5q0 61.5 13.5 128t35.5 126.5q41 117 101 198l174 -74l8 -20l-94 -256l90 -313l-273 -74q-4 8 -12 43t-18 78q-25 102 -25 163.5z" />
<glyph unicode="&#x201d;" horiz-adv-x="813" d="M51 887l105 250l-68 276l277 62q35 -139 34.5 -213t-16.5 -142.5t-41 -132.5q-47 -119 -113 -203l-172 80zM403 866l109 287l-72 301l277 62q39 -156 39 -234t-16.5 -152.5t-43.5 -142.5q-51 -141 -114 -223l-172 80z" />
<glyph unicode="&#x201e;" horiz-adv-x="835" d="M39 -211l104 250l-75 317l276 62q43 -172 43 -250t-16.5 -146.5t-40.5 -132.5q-47 -119 -113 -202l-172 80zM391 -231l109 286l-80 342l276 62q20 -80 33.5 -167t13.5 -136.5t-16 -124t-43 -142.5q-51 -141 -115 -223l-172 80z" />
<glyph unicode="&#x2022;" horiz-adv-x="559" d="M72 784q0 84 59 148q59 61 148 61q86 0 147 -61.5t61 -147.5q0 -88 -61 -145q-63 -61 -147 -61q-86 0 -146.5 60t-60.5 146z" />
<glyph unicode="&#x2026;" horiz-adv-x="1296" d="M942 129q0 57 41 96t97 39t96 -39t40 -96t-40 -97t-96 -40t-97 40t-41 97zM510 129q0 57 41 96t97 39t96 -39t40 -96t-40 -97t-96 -40t-97 40t-41 97zM78 129q0 57 41 96t97 39t96 -39t40 -96t-40 -97t-96 -40t-97 40t-41 97z" />
<glyph unicode="&#x202f;" horiz-adv-x="397" />
<glyph unicode="&#x2039;" horiz-adv-x="669" d="M4 590v53l539 483l10 -4v-268l-244 -240l244 -237v-268l-12 -7z" />
<glyph unicode="&#x203a;" horiz-adv-x="669" d="M117 109v268l243 237l-243 240v268l10 4l539 -483v-53l-537 -488z" />
<glyph unicode="&#x205f;" horiz-adv-x="497" />
<glyph unicode="&#x20ac;" horiz-adv-x="1269" d="M63 420v203h140q-2 16 -2 34v60h-138v205h160q51 236 211 368q150 125 363 125q178 0 346 -49q31 -240 41 -360h-166l-107 182q-16 2 -35.5 7t-58.5 5q-254 0 -317 -278h495v-209h-518q0 -45 4 -90h514v-203h-473q78 -213 299 -213q104 0 186.5 38t125.5 74l75 -186 q-162 -141 -389 -141q-467 0 -586 428h-170z" />
<glyph unicode="&#x2122;" horiz-adv-x="3092" d="M1352 178l121 17v1013l-113 13v192h527l295 -1048l297 1048h489l31 -190l-113 -25v-1005l105 -15v-178h-435l-18 184l90 27v1010l-342 -1194h-274l-334 1179v-1005l94 -23l2 -96v-82h-410zM20 993l39 420h1137l45 -418h-156l-90 203h-233v-989l237 -45l-20 -164h-696 l-21 164l236 45v989h-232l-88 -205h-158z" />
<glyph unicode="&#xe000;" horiz-adv-x="1004" d="M0 1005h1005v-1005h-1005v1005z" />
<glyph unicode="&#xfb01;" horiz-adv-x="1325" d="M788 954l305 54l70 -74v-780l113 -23v-131h-453l-22 131l114 27v657h-104zM874 1356.5q0 60.5 44 104.5t106 44q61 0 104 -44t43 -104.5t-43 -104.5t-104 -44t-105.5 44t-44.5 104.5zM25 985l14 21h166v102q0 203 102 307q86 88 228 88q125 0 235 -82q41 -33 78 -84 l-234 -141l-82 113q-47 0 -64 -26t-17 -71v-206h233q10 0 10 -13v-174h-243v-667l196 -23l-2 -129h-524l-29 129l111 27v663h-148z" />
<glyph unicode="&#xfb02;" horiz-adv-x="1316" d="M768 1466l305 43l72 -75v-1272l133 -33v-129h-473l-23 129l115 29v1169h-107zM25 985l14 21h166v102q0 203 102 307q86 88 228 88q125 0 235 -82q41 -33 78 -84l-234 -141l-82 113q-47 0 -64 -26t-17 -71v-206h233q10 0 10 -13v-174h-243v-667l196 -23l-2 -129h-524 l-29 129l111 27v663h-148z" />
<glyph unicode="&#xfb03;" horiz-adv-x="2060" d="M1523 954l305 54l70 -74v-780l113 -23v-131h-453l-22 131l114 27v657h-104zM1609 1356.5q0 60.5 44 104.5t106 44q61 0 104 -44t43 -104.5t-43 -104.5t-104 -44t-105.5 44t-44.5 104.5zM760 985l14 21h166v102q0 203 102 307q86 88 228 88q125 0 235 -82q41 -33 78 -84 l-234 -141l-82 113q-47 0 -64 -26t-17 -71v-206h233q10 0 10 -13v-174h-243v-667l196 -23l-2 -129h-524l-29 129l111 27v663h-148zM25 985l14 21h166v102q0 203 102 307q86 88 228 88q125 0 235 -82q41 -33 78 -84l-234 -141l-82 113q-47 0 -64 -26t-17 -71v-206h233 q10 0 10 -13v-174h-243v-667l196 -23l-2 -129h-524l-29 129l111 27v663h-148z" />
<glyph unicode="&#xfb04;" horiz-adv-x="2052" d="M1503 1466l305 43l72 -75v-1272l133 -33v-129h-473l-23 129l115 29v1169h-107zM760 985l14 21h166v102q0 203 102 307q86 88 228 88q125 0 235 -82q41 -33 78 -84l-234 -141l-82 113q-47 0 -64 -26t-17 -71v-206h233q10 0 10 -13v-174h-243v-667l196 -23l-2 -129h-524 l-29 129l111 27v663h-148zM25 985l14 21h166v102q0 203 102 307q86 88 228 88q125 0 235 -82q41 -33 78 -84l-234 -141l-82 113q-47 0 -64 -26t-17 -71v-206h233q10 0 10 -13v-174h-243v-667l196 -23l-2 -129h-524l-29 129l111 27v663h-148z" />
</font>
</defs>
</svg>
