<?xml version="1.0" standalone="no"?>
<!DOCTYPE svg PUBLIC "-//W3C//DTD SVG 1.1//EN" "http://www.w3.org/Graphics/SVG/1.1/DTD/svg11.dtd" >
<svg xmlns="http://www.w3.org/2000/svg">
<metadata></metadata>
<defs>
<font id="kreonlight" horiz-adv-x="1320" >
<font-face units-per-em="2048" ascent="1638" descent="-410" />
<missing-glyph horiz-adv-x="491" />
<glyph horiz-adv-x="2048" />
<glyph horiz-adv-x="2048" />
<glyph unicode="&#xd;" horiz-adv-x="321" />
<glyph unicode=" "  horiz-adv-x="491" />
<glyph unicode="&#x09;" horiz-adv-x="491" />
<glyph unicode="&#xa0;" horiz-adv-x="491" />
<glyph unicode="!" horiz-adv-x="518" d="M147 99q0 44 31 76t75 32t75.5 -32t31.5 -76t-31.5 -74.5t-75.5 -30.5t-75 30.5t-31 74.5zM158 1391l168 24l43 -78l-56 -870h-118z" />
<glyph unicode="&#x22;" horiz-adv-x="581" d="M88 1411l154 10l18 -45l-45 -350l-92 -2zM324 1411l153 10l21 -45l-45 -350h-95z" />
<glyph unicode="#" horiz-adv-x="1214" d="M61 596l15 25h278l76 245h-242l-14 82l14 27h277l125 397h104l17 -29l-117 -368h182l125 397h100l17 -29l-115 -368h232q12 0 12 -14v-95h-279l-75 -245h249q12 0 13 -15v-92h-295l-129 -416h-101l-18 27l121 389h-184l-132 -416h-100l-18 27l120 389h-243zM481 621h185 l77 245h-184z" />
<glyph unicode="$" horiz-adv-x="970" d="M92 375h119l55 -203q78 -37 172 -41v553q-172 78 -230 130t-87 110.5t-29 135.5t27.5 136t75.5 102q94 90 243 111v168h119v-164q115 -6 266 -63l27 -316h-113l-86 217q-47 18 -94 25v-485l31 -13q250 -117 293 -286q14 -51 14 -118t-26.5 -132.5t-71.5 -114.5 q-88 -96 -240 -127v-221h-119v213q-190 4 -323 67zM238 1079q0 -45 16 -81.5t45 -63.5q49 -51 139 -92v432q-137 -23 -184 -117q-16 -33 -16 -78zM557 143q78 21 135.5 76t57.5 142.5t-36 147.5t-141 114q-12 4 -16 8v-488z" />
<glyph unicode="%" horiz-adv-x="1302" d="M78 1061v12q0 131 59 230q70 113 197 112q131 0 201 -117q57 -96 57 -237q0 -233 -135 -328q-49 -33 -124 -33t-123 35t-77 88q-51 91 -55 238zM152 27l905 1390h88l-2 -31l-889 -1386h-96zM197 1053q0 -156 69 -219q27 -25 69 -25t69.5 25.5t41.5 62.5q29 70 29 164 q0 158 -69 221q-29 25 -72 25q-76 0 -111 -88q-20 -54 -26 -158v-8zM713 350v12q0 135 59 230q70 113 197 113q133 0 202 -117q55 -96 56 -238q0 -229 -137 -325q-49 -33 -123 -33t-122 33.5t-77 87.5q-51 94 -55 237zM831 342q0 -156 70 -219q27 -25 69 -25t69.5 26 t41.5 64q29 70 29 162q0 158 -70 223q-29 25 -71 25q-111 0 -129 -170q-7 -43 -9 -78v-8z" />
<glyph unicode="&#x26;" horiz-adv-x="1232" d="M72 365q0 131 96 253q76 100 199 177l-15 26q-18 33 -39.5 66t-38.5 67q-39 82 -38.5 141.5t17.5 110.5t54 97q88 111 238 110q109 0 188 -74q86 -77 86 -196q0 -205 -258 -398l80 -106q59 -98 199 -264q76 133 112 323h-84l-26 117h250l14 -24q-18 -150 -90 -347 q-27 -70 -58 -127l-26 -49q121 -135 166 -135q23 0 71 25q10 -72 35 -146q-41 -14 -82 -14q-109 0 -264 160q-139 -166 -360 -166q-197 0 -314 114q-113 106 -112 259zM221 354q0 -106 88 -174q80 -59 172 -59q168 0 283 141q-102 125 -277 371q-33 39 -49 63 q-100 -74 -139 -129q-78 -102 -78 -213zM369 1120.5q0 -69.5 37 -140t90 -146.5q193 154 192 294q0 61 -29 99q-49 68 -110.5 67.5t-93 -15.5t-49.5 -42q-37 -47 -37 -116.5z" />
<glyph unicode="'" horiz-adv-x="348" d="M90 1411l154 10l18 -45l-45 -350h-92z" />
<glyph unicode="(" horiz-adv-x="528" d="M111 594q0 301 77 577q57 197 148 349h123q-131 -246 -185 -623q-18 -141 -18 -303t22.5 -304.5t53.5 -260.5q39 -141 127 -361h-123q-225 471 -225 926z" />
<glyph unicode=")" horiz-adv-x="530" d="M72 -332q88 219 123 348q80 299 79 580q0 426 -135 770q-35 92 -67 154h123q145 -246 202 -613q23 -145 23 -313q0 -455 -225 -926h-123z" />
<glyph unicode="*" horiz-adv-x="679" d="M84 1223l41 88l22 8l172 -141l-32 229l98 8l16 -20l-41 -215l172 149l62 -78l-8 -22l-203 -86l213 -80l-39 -88l-27 -8l-172 141l35 -229l-96 -9l-18 21l38 213l-170 -148l-57 78l4 25l205 84zM326 1143l8 -13h14l6 13l-8 12h-12z" />
<glyph unicode="+" horiz-adv-x="897" d="M66 645v103l16 26h289v346h129v-346h327v-129h-327v-371h-105l-24 17v354h-305z" />
<glyph unicode="," horiz-adv-x="407" d="M68 -166l88 164l-47 238l159 26q18 -74 18.5 -129t-11 -106.5t-31.5 -98.5q-47 -109 -103 -159l-73 36v29z" />
<glyph unicode="-" horiz-adv-x="772" d="M129 514v113l16 16h486q12 0 12 -14v-115h-514z" />
<glyph unicode="." horiz-adv-x="421" d="M104 99q0 44 31 76t75 32t75.5 -32t31.5 -76t-31.5 -74.5t-75.5 -30.5t-75 30.5t-31 74.5z" />
<glyph unicode="/" horiz-adv-x="894" d="M49 27l694 1390h105l-2 -31l-692 -1386h-99z" />
<glyph unicode="0" horiz-adv-x="1161" d="M109 705q0 295 110 489q127 223 363 223q233 0 360 -223q111 -195 111 -489q0 -295 -111 -490q-127 -223 -360 -223q-236 0 -363 223q-110 195 -110 490zM250 705q0 -381 174 -525q63 -51 158 -51q170 0 258 186q72 154 71 390q0 379 -174 524q-61 51 -155 51 q-172 0 -260 -186q-72 -151 -72 -389z" />
<glyph unicode="1" horiz-adv-x="669" d="M70 1307l323 110l45 -20v-1258l193 -26v-113h-533l-14 100l215 39v1092l-211 -41z" />
<glyph unicode="2" horiz-adv-x="1032" d="M70 1159q78 129 183 193.5t226 64.5t195 -29.5t123 -80.5q100 -102 100 -267q0 -145 -125 -344q-86 -137 -260 -325q-88 -94 -219 -217l-25 -25h498l70 221h100l-41 -350h-797l-20 119q45 51 113.5 114.5t143.5 136t149.5 154.5t133.5 168q135 195 136 359q0 125 -92 188 q-70 47 -154 47q-121 0 -191 -39l-2 -4q-2 -2 -12 -18q-14 -31 -84 -158z" />
<glyph unicode="3" horiz-adv-x="1054" d="M74 113l71 116q145 -109 336 -108q129 0 219 67q96 72 97 197q0 162 -160 225q-111 43 -305 43h-31v129q201 0 286 34t130 90.5t45 154.5q0 100 -82 164q-80 61 -184 61q-113 0 -174 -43l-95 -176l-151 92q72 129 177 193.5t259 64.5t270 -92q129 -100 129 -260 q0 -115 -65 -211q-63 -94 -174 -131q115 -23 192 -105q86 -94 86 -214.5t-41 -196.5t-106 -125q-127 -90 -328 -90q-223 0 -401 121z" />
<glyph unicode="4" horiz-adv-x="1040" d="M16 541l627 874h139v-866h174v-139h-174v-260q127 -29 164 -29v-117h-614v111l311 32v263h-563zM174 549h469v663z" />
<glyph unicode="5" horiz-adv-x="1028" d="M59 113l74 116q59 -53 142 -80.5t161 -27.5t141.5 25.5t110.5 70.5q98 100 98 246q0 188 -137 270q-109 66 -297 66q-80 0 -188 -17v564l63 67h678v-137h-612v-352q33 4 63 4h60q236 0 375 -123q143 -127 143 -332q0 -215 -141 -350q-139 -131 -355 -131q-227 0 -379 121 z" />
<glyph unicode="6" horiz-adv-x="1153" d="M104 674q0 274 121 489q88 156 242 221q78 33 171 33t163.5 -21.5t120.5 -47.5q86 -49 125 -95l-150 -145l-106 147q-66 33 -160 33t-169 -61.5t-122 -153.5q-86 -172 -86 -385q59 86 154.5 139.5t201 53.5t185 -32t139.5 -89q121 -119 121 -311q0 -197 -121 -326 q-125 -131 -324 -131q-139 0 -235 65.5t-156 163.5q-115 193 -115 453zM287 432q20 -131 104 -219q88 -92 225 -92q72 0 128.5 29.5t91.5 74.5q72 92 71.5 223.5t-80 217.5t-221.5 86q-127 0 -225 -95q-94 -92 -94 -225z" />
<glyph unicode="7" horiz-adv-x="874" d="M61 1051v362h756l37 -51l-453 -1362h-143l-10 29l459 1251h-498l-62 -229h-86z" />
<glyph unicode="8" horiz-adv-x="1050" d="M96 352q0 190 187 332q51 39 102 72q-92 63 -156.5 142t-64.5 207t96 220t262 92t262.5 -85t96.5 -240q0 -96 -59.5 -171t-164.5 -157q240 -143 283 -297q14 -53 14 -116.5t-26.5 -127t-79.5 -117.5q-121 -115 -328 -114q-207 0 -323 114q-100 102 -101 246zM236 356.5 q0 -59.5 23.5 -102.5t62.5 -74q80 -59 198 -59q123 0 205 59q88 68 88 174q0 152 -203 264q-102 57 -112 68q-43 -31 -89.5 -63.5t-85 -71.5t-63 -87t-24.5 -107.5zM303 1111q0 -50 16.5 -88t47.5 -71q39 -41 176 -123q102 86 134 125t48 75t16 81t-20.5 80t-52.5 55 q-63 43 -148 43q-72 0 -121 -29.5t-72.5 -63.5t-23.5 -84z" />
<glyph unicode="9" horiz-adv-x="1095" d="M94 131l88 123q84 -84 211 -121q41 -12 94.5 -12t116 25.5t113.5 89.5q109 139 117 438q-56 -72 -141 -110t-180 -38t-172 37t-128 99q-109 127 -109 307q0 174 97 297q117 150 323 149q418 0 455 -584q4 -84 4 -200.5t-36 -242.5t-101 -214q-135 -182 -354 -182 q-233 0 -398 139zM254 979q0 -133 70 -225q72 -96 206 -97q98 0 183 70q88 72 108 182q-33 270 -174 348q-51 29 -112.5 29t-111.5 -21.5t-87 -60.5q-82 -86 -82 -225z" />
<glyph unicode=":" horiz-adv-x="471" d="M129 468q0 44 32 75.5t76 31.5t74.5 -31.5t30.5 -75.5t-30.5 -75t-74.5 -31t-76 31t-32 75zM129 898q0 44 32 76t76 32t74.5 -32t30.5 -76t-30.5 -74.5t-74.5 -30.5t-76 30.5t-32 74.5z" />
<glyph unicode=";" horiz-adv-x="466" d="M115 -166v-29l73 -36q55 51 91 129q55 129 55 227q0 63 -19 137l-159 -26l47 -238zM115 529q0 44 31.5 76t75.5 32t75 -32t31 -76t-31 -74.5t-75 -30.5t-75.5 30.5t-31.5 74.5z" />
<glyph unicode="&#x3c;" horiz-adv-x="821" d="M59 680v33l609 420v-142l-422 -297l422 -295v-145z" />
<glyph unicode="=" horiz-adv-x="897" d="M139 506v129h619v-129h-619zM139 760v129h619v-129h-619z" />
<glyph unicode="&#x3e;" horiz-adv-x="821" d="M154 254v145l421 295l-421 297v142l608 -420v-33z" />
<glyph unicode="?" horiz-adv-x="813" d="M96 1069l39 293q158 51 260.5 51t167 -22.5t105.5 -63.5q80 -78 80 -207q0 -193 -195 -334q-57 -41 -123 -84q-100 -67 -100 -188l2 -27l-119 -2q-4 20 -4 76.5t28.5 108t71.5 89.5t93.5 70.5t93.5 71.5q100 88 100 211q0 72 -33 105q-63 68 -170 67q-74 0 -137 -18 l-55 -197h-105zM178 99q0 44 32 76t76 32t74.5 -32t30.5 -76t-30.5 -74.5t-74.5 -30.5t-76 30.5t-32 74.5z" />
<glyph unicode="@" horiz-adv-x="1652" d="M86 446.5q0 153.5 62.5 287.5t169 232.5t247 155t293.5 56.5q305 0 498 -199q190 -193 190 -508q0 -182 -92 -324q-102 -156 -268 -155q-117 -1 -166 65q-78 -66 -207 -65q-164 0 -266 110q-109 115 -109 312q0 231 140 340q102 82 241 82q92 0 174 -39l88 41l45 -13 v-651q0 -53 66 -53q84 0 151 115q63 111 63.5 238.5t-38.5 233t-111 181.5q-152 160 -403 160q-270 0 -451 -177q-178 -176 -178 -432q0 -125 46 -240.5t127 -203.5t189.5 -141.5t243 -53.5t244.5 45l27 -8l-35 -131q-121 -35 -263 -35t-276.5 63.5t-232.5 170t-153.5 247 t-55.5 294zM575 421q0 -93 25 -151.5t64 -91.5q66 -57 158.5 -57t164.5 51v494q-72 41 -158 41q-156 0 -225 -138q-29 -55 -29 -148z" />
<glyph unicode="A" horiz-adv-x="1167" d="M-4 96l110 37l392 1282h172l393 -1282l96 -37l-22 -96h-392v90l166 43l-108 361h-457l-106 -367l180 -35v-92h-397zM385 623h379l-193 639z" />
<glyph unicode="B" horiz-adv-x="1140" d="M113 115l116 24v1145l-116 10v121h426q211 0 329 -108q115 -101 115 -263q0 -223 -180 -319q109 -49 151 -98q90 -100 90 -244q0 -190 -124 -289q-119 -94 -328 -94h-465zM371 139h262q141 0 209 82q57 70 57 178q0 104 -85 174t-214 70h-229v-504zM371 772h194 q133 0 209 82q64 69 64 180q0 168 -162 223q-59 18 -141 19h-164v-504z" />
<glyph unicode="C" horiz-adv-x="1138" d="M82 709q0 143 50 272t140 225q195 209 496 209q111 0 240 -26l36 -324h-116l-49 201q-16 2 -36 6t-71 4q-244 0 -397 -172q-143 -160 -148 -391q4 -252 142 -410q149 -172 405 -172q137 0 250 72l51 -125q-53 -37 -139 -61.5t-172 -24.5q-305 0 -498 205 q-184 197 -184 512z" />
<glyph unicode="D" horiz-adv-x="1239" d="M113 115l116 26v1143l-116 10v121h293q334 0 528 -170q215 -188 215 -530q0 -356 -195 -539q-184 -176 -522 -176h-305zM371 139h90q295 0 432 180q111 148 111 404q0 115 -39 218t-113 177q-154 158 -426 158h-55v-1137z" />
<glyph unicode="E" horiz-adv-x="1071" d="M113 115l116 24v1145l-116 10v121h815l41 -350h-99l-69 211h-430v-504h331v-129h-331v-504h450l72 211h96l-39 -350h-823z" />
<glyph unicode="F" horiz-adv-x="1007" d="M113 115l116 24v1145l-116 10v121h815l43 -350h-99l-71 213h-430v-506h331v-129h-331v-496l311 -43l-10 -104h-547z" />
<glyph unicode="G" horiz-adv-x="1243" d="M82 696q0 319 192 516q199 203 517 203q137 0 284 -37l23 -315h-129l-47 203q-78 10 -142 10q-258 0 -411 -168q-141 -158 -142 -406q0 -254 160 -413q76 -76 181.5 -117t222 -41t182.5 14v342l-252 29l37 125h356v-606q-145 -43 -311 -43t-296 52t-224 144 q-201 199 -201 508z" />
<glyph unicode="H" horiz-adv-x="1343" d="M111 1292v123h362l8 -115l-112 -16v-491h606v491l-119 8v123h361l10 -115l-113 -16v-1153l119 -8v-123h-363l-8 115l113 16v533h-606v-533l118 -8v-123h-360l-10 115l112 16v1153z" />
<glyph unicode="I" horiz-adv-x="600" d="M113 1292v123h360l8 -115l-110 -16v-1153l116 -8v-123h-360l-8 115l110 16v1153z" />
<glyph unicode="J" horiz-adv-x="733" d="M23 90l79 119q82 -82 181 -82q43 0 73.5 27.5t30.5 97.5v1032l-149 16l12 115h395v-123l-119 -8v-989q0 -190 -102 -262q-59 -41 -139 -41q-150 0 -262 98z" />
<glyph unicode="K" horiz-adv-x="1216" d="M113 1292v123h360l8 -115l-110 -16v-698l573 706l-162 13v110h389v-115l-69 -14l-410 -506l367 -645l123 -18v-117h-217l-369 662l-225 -279v-252l116 -8v-123h-360l-8 115l110 16v1153z" />
<glyph unicode="L" horiz-adv-x="1015" d="M111 115l116 16v1153l-116 8v123h381l8 -115l-131 -16v-1145h450l72 211h96l-39 -350h-823z" />
<glyph unicode="M" horiz-adv-x="1701" d="M111 115l118 24v1145l-116 10v121h350l399 -1237l383 1237h324l12 -123l-106 -10v-1145l122 -24v-113h-368l-10 113l114 26v1164l-395 -1272h-178l-402 1245v-1141l129 -20v-115h-360z" />
<glyph unicode="N" horiz-adv-x="1349" d="M111 115l118 24v1145l-118 10v121h342l553 -1261v1126l-132 20v115h365l21 -115l-125 -24v-1276h-215l-564 1288v-1153l138 -20v-115h-367z" />
<glyph unicode="O" d="M102 702q0 287 136 486q68 100 173 163.5t251 63.5q145 0 250.5 -63.5t172.5 -163.5q133 -201 134 -486q0 -285 -134 -485q-68 -100 -173 -162.5t-250 -62.5q-272 0 -424 225q-135 199 -136 485zM248 698q0 -233 94 -387q109 -180 320 -180q209 0 317 180q94 154 94 387 q0 236 -94 394q-111 184 -317 184q-209 0 -320 -184q-94 -158 -94 -394z" />
<glyph unicode="P" horiz-adv-x="1064" d="M113 113l116 26v1145l-116 10v121h336q305 0 448 -139q115 -111 115 -291q0 -223 -160 -340q-143 -104 -365 -104h-116v-398l286 -39v-104h-530zM371 680h110q223 0 314 94q72 72 71 209q0 145 -104 221q-96 72 -260 72h-131v-596z" />
<glyph unicode="Q" horiz-adv-x="1329" d="M102 702q0 287 136 486q70 100 176 163.5t252 63.5q145 0 251.5 -63.5t176.5 -163.5q135 -203 135 -486t-135 -485q-70 -100 -176.5 -162.5t-251.5 -62.5q-272 0 -428 225q-135 199 -136 485zM252 698q0 -233 94 -387q109 -180 320 -180q209 0 317 180q94 154 94 387 q0 236 -94 396q-111 184 -317 184q-209 0 -320 -184q-94 -160 -94 -396zM532 -115l48 56l436 -150l10 -57l-172 -125q-170 137 -322 276z" />
<glyph unicode="R" horiz-adv-x="1114" d="M113 113l116 26v1145l-116 10v121h356q383 0 502 -235q41 -82 41 -180.5t-23.5 -164t-66.5 -114.5q-82 -100 -220 -143l209 -445l133 -29v-104h-241l-246 545q-45 -4 -90 -4h-96v-398l159 -39v-104h-403zM371 680h110q385 0 385 303q0 147 -100 225q-88 68 -244 68h-151 v-596z" />
<glyph unicode="S" horiz-adv-x="1005" d="M111 375h118l56 -203q86 -41 165.5 -41t132 14.5t93.5 42.5q92 68 92 183q0 78 -36 138t-129 106.5t-178 83t-154.5 83.5t-114.5 114t-45 159t33.5 156.5t91.5 109.5q121 94 290 94q141 0 316 -65l26 -316h-112l-86 217q-63 27 -135 27t-117 -12.5t-82 -36.5 q-80 -55 -80 -135t33 -126t83 -79t112.5 -58.5t138 -60.5t136 -82t93.5 -96q61 -88 61 -193.5t-35.5 -179.5t-95.5 -125q-123 -102 -305 -102q-201 0 -344 67z" />
<glyph unicode="T" horiz-adv-x="1120" d="M37 1077l47 338h952l47 -338h-94l-80 199h-278v-1133l235 -37v-106h-606v106l232 37v1133h-281l-80 -199h-94z" />
<glyph unicode="U" horiz-adv-x="1286" d="M78 1292v123h362l9 -115l-113 -16v-848q0 -147 84 -227t233 -80q219 0 293 166q25 57 25 141v848l-117 8v123h348l8 -115l-112 -16v-870q0 -197 -133 -312q-126 -111 -322 -111q-1 1 -2 1q-197 0 -319 114q-125 117 -125 308v870z" />
<glyph unicode="V" horiz-adv-x="1150" d="M16 1319v96h404v-90l-180 -43l342 -1055l350 1061l-187 35v92h402v-96l-82 -37l-426 -1282h-133l-416 1282z" />
<glyph unicode="W" horiz-adv-x="1753" d="M27 1319v96h385v-90l-160 -43l231 -1102l318 1188h174l311 -1200l234 1120l-160 35v92h373v-96l-82 -37l-273 -1282h-186l-309 1180l-308 -1180h-204l-265 1282z" />
<glyph unicode="X" horiz-adv-x="1159" d="M41 0v111l92 14l359 586l-351 573l-96 23v108h399v-88l-145 -31l291 -475l264 475l-121 21v98h367v-110l-92 -15l-342 -592l338 -544l131 -48v-106h-406v106l127 13l-291 473l-280 -473l118 -21v-98h-362z" />
<glyph unicode="Y" horiz-adv-x="1103" d="M14 1292v123h373v-108l-129 -21l311 -610l287 612l-125 17v110h352v-123l-88 -20l-370 -774v-355l235 -37l-18 -106h-574l-20 106l237 37v383l-383 748z" />
<glyph unicode="Z" horiz-adv-x="1110" d="M96 154l754 1122h-606l-41 -209h-97v348h871l20 -178l-737 -1098h612l41 209h97v-348h-895z" />
<glyph unicode="[" horiz-adv-x="626" d="M166 -334v1675l14 29h422q12 0 12 -16v-111h-309v-1483h309v-110q0 -16 -12 -17h-409z" />
<glyph unicode="\" horiz-adv-x="927" d="M47 1395l2 20h135l695 -1388l-7 -27h-124z" />
<glyph unicode="]" horiz-adv-x="626" d="M12 -240h310v1483h-310v111q0 16 13 16h421l15 -29v-1675l-27 -33h-409q-12 0 -13 17v110z" />
<glyph unicode="^" horiz-adv-x="720" d="M106 1192l240 291h31l237 -287l-6 -14h-112l-136 141l-135 -141h-110z" />
<glyph unicode="_" horiz-adv-x="1173" d="M20 -27l25 27h1096q12 0 12 -14v-115h-1133v102z" />
<glyph unicode="`" horiz-adv-x="581" d="M113 1378l90 109h53l213 -287l-70 -67z" />
<glyph unicode="a" horiz-adv-x="917" d="M84 253q0 114 56.5 177.5t138.5 97.5q131 55 342 62v131q0 66 -49.5 104.5t-131.5 38.5q-98 0 -141 -26l-33 -109l-168 31q35 106 131 166q86 55 199 55q170 0 246 -79t76 -212v-528q0 -59 47 -60q18 0 43 11l22 -78q-43 -43 -112 -43q-94 0 -119 90q-98 -90 -242 -90 q-127 0 -213 71q-92 76 -92 190zM219 266.5q0 -69.5 49 -113.5t125 -44q154 0 228 112v254q-257 0 -359 -98q-43 -41 -43 -110.5z" />
<glyph unicode="b" horiz-adv-x="991" d="M12 1452l215 37l56 -62v-522q92 76 208.5 76t191.5 -40t124 -105q98 -135 98 -340q0 -209 -102 -349q-114 -155 -319 -155h-3q-129 0 -221 53q-63 -45 -74 -45h-32v1354l-125 -8zM283 174q81 -66 178 -66h1q97 0 153.5 33t91.5 88q63 98 63 256q0 250 -145 344 q-53 35 -121 35t-130.5 -28.5t-90.5 -75.5v-586z" />
<glyph unicode="c" horiz-adv-x="829" d="M88 477q0 342 229 461q80 43 183 43q182 0 284 -76l-90 -141l-121 96q-16 4 -38 4h-35q-152 0 -221 -125q-55 -100 -56 -264q0 -250 158 -336q56 -31 156 -30q1 -1 3 -1q102 0 197 56l35 -101q-91 -71 -259 -71h-5q-207 0 -320 147q-100 133 -100 338z" />
<glyph unicode="d" horiz-adv-x="1013" d="M86 481q0 215 107 353q112 147 317 147q106 0 199 -41v414l-125 -8l-17 106l215 37l56 -62v-1265q0 -59 47 -60q16 0 43 11l22 -82q-39 -39 -120.5 -39t-108.5 84q-92 -84 -213 -84t-196.5 43t-127.5 112q-98 135 -98 334zM221 489q0 -250 152 -346q52 -34 119 -34h4 q145 0 213 104v580q-62 71 -186 71h-3q-152 0 -233 -119q-66 -98 -66 -256z" />
<glyph unicode="e" horiz-adv-x="907" d="M86 475q0 217 113 356q119 150 317 150q129 0 215 -72q90 -74 90 -190.5t-56 -182t-144 -100.5q-145 -57 -394 -57q20 -119 95 -196t216.5 -77t241.5 74l35 -110q-106 -78 -285 -78q-215 0 -333 141q-111 131 -111 342zM221 500h35q182 0 260 25.5t124 67.5t46 120 q0 76 -55 116q-47 35 -118 35t-124 -29.5t-90 -80.5q-74 -104 -78 -254z" />
<glyph unicode="f" horiz-adv-x="636" d="M49 958l14 23h144v240q0 119 58.5 193.5t191.5 74.5q102 0 229 -76l-100 -139l-115 98l-37 2q-84 0 -94 -82q-4 -23 -4 -47v-264h225q10 0 10 -12v-105h-235v-739l225 -33v-92h-459l-16 90l121 29v745h-129z" />
<glyph unicode="g" horiz-adv-x="974" d="M45 -215q0 141 121 235q33 27 67 43q-68 45 -68 112q0 68 77 151q-145 100 -146 295q0 162 103 260q104 100 258.5 100t251.5 -84l186 92l39 -6l20 -139l-178 -23q55 -86 55 -182t-27.5 -162.5t-76.5 -114.5q-104 -100 -264 -100q-57 0 -107 12l-43 -63l6 -43 q43 -12 80 -22.5t74 -20.5l62 -14q156 -41 215 -84t85.5 -94.5t26.5 -132.5t-35.5 -146.5t-93.5 -108.5q-117 -88 -289 -88q-164 0 -276 84q-123 90 -123 244zM174 -195.5q0 -68.5 27.5 -106.5t68.5 -63q82 -49 159 -49t129 14.5t93 39.5q94 57 94 151q0 102 -127 154 q-55 23 -122.5 37t-130.5 30q-76 -26 -133.5 -82.5t-57.5 -125zM231 623q0 -104 60.5 -174t171.5 -70t172 69.5t61 174.5q0 104 -61 172.5t-172 68.5t-171.5 -68.5t-60.5 -172.5z" />
<glyph unicode="h" horiz-adv-x="1019" d="M49 1454l201 35l59 -62v-524q113 78 250 78t213 -75t76 -222v-565l125 -29v-90h-369l-8 90l123 29v551q0 194 -174 194q-135 0 -236 -88v-657l115 -27v-92h-352l-11 90l119 29v1235h-112z" />
<glyph unicode="i" horiz-adv-x="509" d="M70 948l202 37l56 -61v-803l125 -31v-90h-359l-18 88l123 31v733l-111 -8zM121 1374q0 45 30.5 77t75.5 32t77 -32t32 -77t-32 -75.5t-77 -30.5t-75.5 30.5t-30.5 75.5z" />
<glyph unicode="j" horiz-adv-x="466" d="M-53 -487l67 98q55 -55 104.5 -55t59.5 36.5t10 88.5v1171l-141 -10l-16 104l231 39l55 -61v-1264q0 -96 -30 -139q-59 -80 -166 -80q-102 0 -174 72zM109 1374q0 45 30.5 77t75.5 32t77 -32t32 -77t-32 -75.5t-77 -30.5t-75.5 30.5t-30.5 75.5z" />
<glyph unicode="k" horiz-adv-x="937" d="M49 1454l205 35l55 -62v-872l361 334h-84l-17 96h283l29 -55l-344 -322l251 -495l107 -23v-90h-203l-262 512l-121 -115v-278l115 -27v-92h-352l-11 90l119 29v1235h-112z" />
<glyph unicode="l" horiz-adv-x="493" d="M51 90l131 29v1235h-112l-19 100l201 35l59 -62v-1310l125 -27v-90h-375z" />
<glyph unicode="m" horiz-adv-x="1570" d="M66 948l206 37l45 -84q57 39 127 59.5t125 20.5q164 0 240 -102q131 102 283 102q307 0 307 -297v-565l125 -29v-90h-369l-8 90l123 29v551q0 194 -172 194h-2q-47 0 -110.5 -16.5t-129.5 -85.5q6 -37 6 -78v-565l125 -29v-90h-369l-8 90l123 29v551q0 194 -172 194h-2 q-137 0 -235 -86v-657l125 -31v-90h-355l-12 88l113 31v741l-111 -8z" />
<glyph unicode="n" horiz-adv-x="1034" d="M66 948l206 37l45 -84q115 80 254.5 80t215 -75t75.5 -222v-565l125 -29v-90h-369l-8 90l123 29v551q0 194 -174 194q-137 0 -235 -86v-657l125 -31v-90h-355l-12 88l113 31v741l-111 -8z" />
<glyph unicode="o" horiz-adv-x="1001" d="M86 494q0 96 26.5 186t80.5 158q113 147 307 147q207 0 315 -151q100 -137 100 -342t-100 -345q-108 -155 -312 -155h-3q-199 0 -314 155q-100 138 -100 347zM221 462.5q0 -61.5 15.5 -125t50.5 -112.5q75 -114 211 -114h2q145 0 219 118q61 100 61 252q0 248 -149 350 q-53 35 -132 35t-132.5 -41t-85 -100t-46 -130t-14.5 -132.5z" />
<glyph unicode="p" horiz-adv-x="1024" d="M45 948l215 37l55 -74q96 70 211 70t190 -40t124 -105q98 -135 98 -340q0 -209 -102 -349q-115 -155 -326 -155q-113 0 -195 41v-459l248 -43v-90h-479l-18 90l120 29v1292l-125 -8zM315 174q81 -66 178 -66h1q98 1 154.5 33.5t90.5 87.5q63 98 64 256q0 250 -146 344 q-53 35 -120.5 35t-130 -28.5t-91.5 -75.5v-586z" />
<glyph unicode="q" horiz-adv-x="989" d="M86 479q0 266 152 404q113 102 250 102t231 -61l47 59l72 -20v-1403l120 -29v-90h-483l-14 90l248 55v480q-86 -74 -224 -74q-174 0 -282 127q-117 137 -117 360zM221 489q0 -203 94 -301q74 -78 165 -78h1q92 1 148.5 33.5t79.5 69.5v580q-21 24 -72 48.5t-109.5 24.5 t-110.5 -16t-95 -59q-100 -96 -101 -302z" />
<glyph unicode="r" horiz-adv-x="790" d="M70 948l200 35l56 -82q92 84 206 84q141 0 240 -135l-156 -76l-69 94q-74 0 -139 -53q-82 -63 -82 -176v-508l286 -41v-90h-518l-18 90l121 29v731h-111z" />
<glyph unicode="s" horiz-adv-x="813" d="M66 188l159 62l47 -107q53 -32 133 -32h5q61 0 100 26q74 51 74 117q0 74 -47 115q-43 35 -177 82q-254 80 -254 266q0 125 91 196q88 72 215 72q63 0 118.5 -19.5t96.5 -47.5q78 -53 112 -132l-159 -59l-48 104q-41 35 -124 35q-57 0 -95 -22q-71 -46 -71 -113 q0 -68 49 -104q53 -35 182 -77t187.5 -110.5t58.5 -154.5t-28.5 -138.5t-74.5 -85.5q-91 -69 -215 -69h-4q-123 0 -219 67q-70 49 -112 129z" />
<glyph unicode="t" horiz-adv-x="620" d="M14 958l15 23h180l2 344l115 29l12 -23q-2 -49 -2 -96v-254h217q10 0 10 -12v-101h-229v-661q0 -55 23.5 -75.5t74.5 -20.5t125 53l35 -105q-25 -18 -71 -42.5t-137 -24.5t-136 63.5t-45 161.5v68l4 583h-164z" />
<glyph unicode="u" horiz-adv-x="1003" d="M39 948l207 37l51 -57v-602q0 -137 76 -187q44 -29 113 -29h2q70 0 131 29t86 68v643h-111l-14 98l204 39l50 -59v-778q0 -45 47 -46l37 7l16 -72q-12 -14 -43 -30.5t-74 -16.5q-81 0 -104 84q-102 -84 -240 -84q-209 0 -280 172q-25 61 -25 155v531h-111z" />
<glyph unicode="v" horiz-adv-x="899" d="M4 971l205 14l266 -797l260 684h-92l-10 99l205 14l39 -76l-353 -909h-131l-295 872h-78z" />
<glyph unicode="w" horiz-adv-x="1361" d="M14 973l226 10l159 -838l242 766h109l243 -755l166 716h-92l-18 101l221 10l28 -53l-227 -930h-176l-205 672l-203 -672h-196l-174 872h-86z" />
<glyph unicode="x" horiz-adv-x="933" d="M61 106h86l234 392l-234 364h-86v119h170l252 -389l234 389h143v-109h-67l-238 -391l236 -362h86v-119h-175l-249 385l-230 -385h-141z" />
<glyph unicode="y" horiz-adv-x="919" d="M6 971l195 12l280 -872l271 759h-74l-16 101l196 12l35 -72q-98 -268 -211 -576t-180.5 -487.5t-88 -227.5t-48.5 -87q-66 -92 -162 -92q-86 0 -180 74l63 106q61 -61 119 -61q74 0 127 129q12 35 22 65l54 150l-316 966h-69z" />
<glyph unicode="z" horiz-adv-x="876" d="M96 0v119l504 741h-375l-32 -170h-97v291h680v-121l-518 -741h389l33 192h96v-311h-680z" />
<glyph unicode=" {" horiz-adv-x="632" d="M29 475v172q92 0 159 53q70 57 70 154v47l-2 148v57q0 326 252 326q39 0 125 -11l-43 -157l-117 34l-18 -4q-63 -27 -64 -215l4 -207q0 -217 -129 -278q-39 -20 -106 -29v-8q121 -14 178 -84t57 -231l-4 -199q0 -207 64 -233l18 -7l117 35l43 -155q-70 -12 -135.5 -12.5 t-113.5 26.5t-77 72q-51 80 -51 229v57l2 162v51q0 104 -62.5 155.5t-166.5 51.5z" />
<glyph unicode="|" horiz-adv-x="452" d="M168 -340v1704h117v-1704h-117z" />
<glyph unicode="}" horiz-adv-x="634" d="M0 -317l43 155l117 -35l20 7q39 16 50.5 82.5t11.5 150.5l-4 199q0 162 57 231q57 70 178 84v8q-125 16 -178 82q-57 76 -57 225l4 207q0 76 -11.5 137.5t-50.5 77.5l-20 4l-117 -34l-43 157q86 10 125 11q252 0 252 -326v-57l-2 -148v-47q0 -96 71 -154q66 -53 160 -53 v-172q-106 0 -168.5 -51t-62.5 -156v-51l2 -162v-57q0 -328 -252 -328q-55 0 -125 13z" />
<glyph unicode="~" horiz-adv-x="792" d="M63 1188q25 84 87.5 127t115.5 43t91 -13.5t71 -29.5q86 -43 117 -43l114 86l76 -127q-92 -78 -192 -78q-39 0 -72 12.5t-65.5 25.5t-65.5 25.5t-73 12.5t-70.5 -29t-44.5 -65z" />
<glyph unicode="&#xa1;" horiz-adv-x="489" d="M133 900q0 44 31 75t75 31t75.5 -31t31.5 -75t-31.5 -75.5t-75.5 -31.5t-75 31.5t-31 75.5zM143 -391l37 923h119l55 -870l-43 -78z" />
<glyph unicode="&#xa2;" horiz-adv-x="835" d="M66 477q0 305 204 441q68 47 164 59v270h119v-268q135 -14 219 -74l-90 -141l-121 96l-8 2v-753q94 8 172 55l35 -101q-80 -61 -207 -69v-318h-119v320q-182 25 -278 164q-90 131 -90 317zM201 477q0 -61 12 -119.5t41 -107.5q59 -106 180 -133v743q-121 -23 -184 -141 q-49 -97 -49 -242z" />
<glyph unicode="&#xa3;" horiz-adv-x="997" d="M55 29q14 51 49 86t76 70.5t67.5 89t41.5 116.5q20 90 20 283h-143v110l14 19h129v276q0 178 103 264q84 72 213 72q76 0 129 -26q80 -43 116 -74l-98 -135l-121 102q-20 4 -41.5 4t-49.5 -6t-52 -27q-59 -49 -59 -163v-287h282q12 0 12 -17v-112h-294 q-4 -139 -17.5 -259t-75.5 -204q98 -10 184.5 -41t127.5 -45t73 -14l115 86l74 -127q-102 -78 -182 -78t-138.5 14t-109.5 31q-139 47 -197.5 47t-92.5 -28.5t-44 -63.5z" />
<glyph unicode="&#xa4;" horiz-adv-x="526" d="M182 -438v981h162v-981h-162zM182 729v909h162v-909h-162z" />
<glyph unicode="&#xa5;" horiz-adv-x="1128" d="M57 1303v112h344v-96l-112 -23l286 -510l285 510l-117 19v100h328v-115l-65 -20l-371 -643v-19h233v-129h-233v-59h233v-129h-233v-158l233 -37l-16 -106h-561l-19 106l224 37v158h-248v129h248v59h-248v129h248v23l-357 643z" />
<glyph unicode="&#xa6;" horiz-adv-x="473" d="M172 -354v766h129v-766h-129zM172 594v778h129v-778h-129z" />
<glyph unicode="&#xa7;" horiz-adv-x="1013" d="M109 1092q0 141 116 233q113 90 287 90q166 0 326 -65l24 -316h-110l-86 226q-61 27 -133 26.5t-118 -13.5t-83 -36q-76 -51 -76 -116.5t31.5 -105.5t81 -72t110 -56.5t119.5 -48.5q166 -72 244 -154t78 -211t-111 -250q90 -90 90 -217q0 -160 -133 -252 q-121 -84 -301 -84q-166 0 -334 68l-20 311h118l41 -217q66 -33 203 -33q182 0 252 111q25 41 25 97t-31 96t-78 71t-102 55q-238 106 -330 192.5t-92 213.5t102 229q-111 90 -110 228zM266.5 669.5q-0.5 -55.5 18 -88t55.5 -63.5q57 -49 162 -102q152 -78 209 -115 q57 76 57 146.5t-25.5 109.5t-66.5 70q-59 47 -150 82q-121 49 -198 88q-61 -72 -61.5 -127.5z" />
<glyph unicode="&#xa8;" horiz-adv-x="727" d="M106 1080q0 42 29 72t71 30t72.5 -30t30.5 -72t-30.5 -71.5t-72.5 -29.5t-71 29.5t-29 71.5zM418 1080q0 42 30.5 72t72.5 30t71 -30t29 -72t-29 -71.5t-71 -29.5t-72.5 29.5t-30.5 71.5z" />
<glyph unicode="&#xa9;" horiz-adv-x="1490" d="M84 762q0 276 186 467q190 195 475 194q143 0 265.5 -52t210.5 -142q186 -190 186 -467q0 -276 -186 -467q-88 -90 -210 -142.5t-266.5 -52.5t-265.5 52.5t-209 142.5q-186 191 -186 467zM203 762q0 -236 153.5 -389.5t388.5 -153.5q236 0 389.5 153.5t153.5 389.5 t-153.5 389.5t-389.5 153.5t-389 -153.5t-153 -389.5zM350 748q0 190 117 309q111 115 291 114q111 0 164 -14l20 -223h-82l-26 115q-20 4 -80 4t-111 -18.5t-90 -55.5q-82 -84 -82 -221t76 -216t211 -79q49 0 98 12q74 20 92 39l31 -108q-98 -61 -206.5 -61.5t-181.5 28 t-126 82.5q-115 115 -115 293z" />
<glyph unicode="&#xaa;" horiz-adv-x="608" d="M88 1032q0 162 274 174v45q0 49 -38 68q-16 10 -45 10t-50 -14l-14 -60l-127 19q16 102 129 133q29 8 58.5 8t64.5 -8t63 -27q68 -43 68 -131v-243q0 -27 16 -27l25 6l20 -63q-39 -33 -86 -33t-69 35q-47 -37 -98.5 -37t-81 9t-54.5 28q-55 40 -55 108zM203 1034 q0 -14 12 -37.5t53 -23.5q66 0 92 53l2 10v84q-160 0 -159 -86z" />
<glyph unicode="&#xab;" horiz-adv-x="929" d="M20 690l437 443l84 -84l-355 -357l355 -356l-84 -84zM358 690l394 400l84 -84l-312 -314l312 -313l-84 -84z" />
<glyph unicode="&#xac;" horiz-adv-x="1228" d="M109 854v111l14 18h940l18 -16v-420q0 -14 -16 -15h-113v322h-843z" />
<glyph unicode="&#xad;" horiz-adv-x="772" d="M98 537v186h574v-186h-574z" />
<glyph unicode="&#xae;" horiz-adv-x="1490" d="M84 762q0 276 186 467q190 195 475 194q143 0 265.5 -52t210.5 -142q186 -190 186 -467q0 -276 -186 -467q-88 -90 -210 -142.5t-266.5 -52.5t-265.5 52.5t-209 142.5q-186 191 -186 467zM203 762q0 -236 153.5 -389.5t388.5 -153.5q236 0 389.5 153.5t153.5 389.5 t-153.5 389.5t-389.5 153.5t-389 -153.5t-153 -389.5zM479 459l53 14v598l-53 6v105h187q186 0 274 -71t88 -193q0 -84 -47 -142.5t-127 -87.5l147 -219l70 -14v-90h-153l-181 297q-16 -2 -30 -3h-56v-184l105 -20v-90h-269zM651 778h33q215 0 215 140q0 82 -59.5 114.5 t-141.5 32.5h-47v-287z" />
<glyph unicode="&#xaf;" horiz-adv-x="747" d="M117 1290v111l14 18h485q14 0 15 -16v-113h-514z" />
<glyph unicode="&#xb0;" horiz-adv-x="540" d="M78 1290q0 92 47 152.5t145 60.5t145.5 -60.5t47.5 -152.5t-47 -153.5t-146 -61.5q-98 0 -145 61.5t-47 153.5zM186 1288q0 -41 20.5 -79t63.5 -38t64.5 38t21.5 79t-21.5 80t-64.5 39t-63.5 -39t-20.5 -80z" />
<glyph unicode="&#xb1;" horiz-adv-x="985" d="M143 346v119l17 24h678v-143h-695zM143 791v98l27 31h256v227h129v-227h283v-129h-283v-232h-113l-16 27v205h-283z" />
<glyph unicode="&#xb2;" horiz-adv-x="542" d="M86 1274q20 78 75.5 109.5t116 31.5t107.5 -40t47 -99t-15.5 -98t-37.5 -72q-31 -47 -94 -111l-21 -20h94l29 65h64l-23 -151h-319l-7 57q221 190 222 303q0 70 -68 70q-26 0 -51 -10l-23 -64z" />
<glyph unicode="&#xb3;" horiz-adv-x="540" d="M80 958l59 80q23 -20 50.5 -36.5t75.5 -16.5t67.5 21.5t19.5 42.5q0 61 -139 61v90q113 0 113 66q0 18 -13.5 35.5t-49.5 17.5t-50 -12l-25 -64l-100 31q18 61 65.5 101t120.5 40q94 0 142 -80q14 -25 14 -59.5t-20.5 -69.5t-69.5 -43q121 -23 121 -123 q0 -76 -57.5 -113.5t-133.5 -37.5q-115 0 -190 69z" />
<glyph unicode="&#xb4;" horiz-adv-x="571" d="M106 1198l213 285h56l90 -107l-287 -246z" />
<glyph unicode="&#xb6;" horiz-adv-x="1071" d="M63 1013q0 77 24 146.5t77 126.5q119 129 348 129h434v-121h-86v-1294h-117v1294h-65v-1038q0 -84 -14 -98q-70 -78 -170 -174l-109 151l154 88v389q-217 4 -349 121q-61 53 -94 128t-33 152z" />
<glyph unicode="&#xb7;" horiz-adv-x="471" d="M129 522v295h195l18 -18v-277h-213z" />
<glyph unicode="&#xb8;" horiz-adv-x="815" d="M147 -504l89 168l151 -94q55 0 92 27.5t37 70.5t-40 79t-140 36h-19l-36 39l77 209h140l-45 -131q139 -14 194 -129q20 -41 21 -95q0 -104 -71 -169.5t-214 -65.5q-76 0 -130 18.5t-106 36.5z" />
<glyph unicode="&#xb9;" horiz-adv-x="450" d="M84 1360l190 59l19 -10v-428l72 -18v-74h-254l-7 69l78 17v325l-80 -12z" />
<glyph unicode="&#xba;" horiz-adv-x="606" d="M80 1153q0 193 137 248q39 16 84 16q94 0 159.5 -64.5t65.5 -199.5t-65.5 -200.5t-158.5 -65.5t-157.5 65.5t-64.5 200.5zM195 1148q0 -71 27.5 -114t80.5 -43t81 43t28 114t-28 117t-81 46t-80.5 -46t-27.5 -117z" />
<glyph unicode="&#xbb;" horiz-adv-x="931" d="M94 379l312 313l-312 314l84 84l393 -396l-393 -399zM389 336l354 356l-354 357l84 84l436 -439l-436 -442z" />
<glyph unicode="&#xbc;" horiz-adv-x="1224" d="M74 1360l211 59l18 -10v-672l72 -16v-76h-264l-7 72l89 14v569l-103 -12zM156 -16l714 1431h107l-2 -29l-715 -1429h-98zM649 240v131l301 399h109v-434h100v-96h-100v-144l74 -12v-84h-351l-4 76l172 22v142h-301zM739 336h211v278z" />
<glyph unicode="&#xbd;" horiz-adv-x="1280" d="M72 1360l211 59l18 -10v-672l72 -16v-76h-264l-7 72l88 14v569l-102 -12zM152 -16l714 1431h107l-2 -29l-715 -1429h-98zM682 616q37 63 105.5 111.5t166 48.5t167 -55t69.5 -170q0 -168 -244 -387q-53 -49 -82 -78h228l38 104h78l-24 -190h-479l-11 63q14 16 49 47 t78 72t89 88t85 95q88 111 88 186q0 82 -55 117q-35 23 -74 22q-55 0 -102 -20l-59 -123z" />
<glyph unicode="&#xbe;" horiz-adv-x="1339" d="M70 688l57 88q72 -68 168 -67q61 0 98 24q68 45 68 113q0 145 -246 145v86q121 0 160 17q80 31 80 116q0 51 -54 86q-41 29 -84 29t-65 -10l-35 -15l-55 -94l-90 58q47 96 157 133q41 14 90.5 14t90.5 -12.5t71 -38.5q70 -57 70 -152q0 -61 -37 -114.5t-108 -63.5 q82 -12 119.5 -66.5t37.5 -110.5t-23.5 -99t-62.5 -72q-80 -59 -166 -59q-150 0 -241 65zM266 -16l717 1431h107l-5 -29l-712 -1429h-99zM764 240v131l301 399h109v-434h100v-96h-100v-144l73 -12v-84h-350l-4 76l172 22v142h-301zM854 336h211v278z" />
<glyph unicode="&#xbf;" horiz-adv-x="784" d="M53 -137q0 188 193 327q55 41 103 75t69.5 59.5t32.5 52.5q20 43 20 92l-2 25l117 4q6 -23 6 -79.5t-28.5 -106.5t-71.5 -89t-93.5 -70.5t-93.5 -70.5q-100 -88 -100 -211q0 -72 33 -104q63 -68 168 -68q66 0 137 16l57 199h102l-38 -301q-117 -39 -281 -39t-247 82 t-83 207zM408 883q0 45 31.5 75.5t75.5 30.5t75 -30.5t31 -75.5t-31 -76t-75 -31t-75.5 31t-31.5 76z" />
<glyph unicode="&#xc0;" horiz-adv-x="1167" d="M-4 96l110 37l392 1282h172l393 -1282l96 -37l-22 -96h-392v90l166 43l-108 361h-457l-106 -367l180 -35v-92h-397zM344 1675l76 148l61 14l344 -272l-63 -97zM385 623h379l-193 639z" />
<glyph unicode="&#xc1;" horiz-adv-x="1167" d="M-4 96l110 37l392 1282h172l393 -1282l96 -37l-22 -96h-392v90l166 43l-108 361h-457l-106 -367l180 -35v-92h-397zM360 1565l324 272l61 -14l76 -148l-395 -207zM385 623h379l-193 639z" />
<glyph unicode="&#xc2;" horiz-adv-x="1167" d="M-4 96l110 37l392 1282h172l393 -1282l96 -37l-22 -96h-392v90l166 43l-108 361h-457l-106 -367l180 -35v-92h-397zM268 1489l291 321h33l287 -321h-150l-156 129l-153 -129h-152zM385 623h379l-193 639z" />
<glyph unicode="&#xc3;" horiz-adv-x="1167" d="M-4 96l110 37l392 1282h172l393 -1282l96 -37l-22 -96h-392v90l166 43l-108 361h-457l-106 -367l180 -35v-92h-397zM268 1556v33q41 82 133 119q41 16 109 16t122 -34.5t120 -79.5l127 102l75 -135q-100 -88 -172 -88q-47 0 -79.5 16.5t-63.5 36t-63.5 35.5t-88 16 t-88 -31.5t-55.5 -68.5zM385 623h379l-193 639z" />
<glyph unicode="&#xc4;" horiz-adv-x="1167" d="M-4 96l110 37l392 1282h172l393 -1282l96 -37l-22 -96h-392v90l166 43l-108 361h-457l-106 -367l180 -35v-92h-397zM260 1581q0 49 34 83t82 34t84 -34t36 -83t-36 -84t-84 -35t-82 35t-34 84zM385 623h379l-193 639zM621 1581q0 49 35.5 83t85 34t82 -34t32.5 -83 t-32.5 -84t-82 -35t-85 35t-35.5 84z" />
<glyph unicode="&#xc5;" horiz-adv-x="1161" d="M-6 96l110 37l377 1239q-41 25 -65.5 69t-24.5 90t15.5 82t39.5 62q57 55 140 56q80 0 136 -56.5t56 -136.5q0 -111 -96 -170l379 -1235l96 -37l-22 -96h-392v90l166 43l-108 361h-457l-106 -367l180 -35v-92h-398zM383 623h379l-193 639zM508 1538q0 -35 21.5 -56.5 t56.5 -21.5t55.5 21.5t20.5 56.5t-20.5 56.5t-55.5 21.5t-56.5 -21.5t-21.5 -56.5z" />
<glyph unicode="&#xc6;" horiz-adv-x="1474" d="M-25 96l109 37l485 1282h762l41 -350h-98l-70 211h-387v-531h291v-129h-291v-477h408l71 211h97l-39 -350h-758l-16 115l98 24v471h-277l-182 -483l176 -35v-92h-393zM449 739h229v545l-23 2z" />
<glyph unicode="&#xc7;" horiz-adv-x="1144" d="M86 709q0 143 50 272t140 225q195 209 496 209q111 0 240 -26l37 -324h-117l-49 201q-16 2 -36 6t-71 4q-244 0 -399 -172q-145 -160 -146 -391q0 -250 142 -410q152 -172 393 -172q150 0 262 72l51 -125q-53 -37 -139 -61.5t-172 -24.5l-25 2l-24 -78q127 -16 172 -113 q16 -35 16 -82q0 -90 -61.5 -147t-188.5 -57q-84 0 -180 41l-24 8l75 145l134 -82q49 0 80.5 24.5t31.5 61.5t-34.5 69t-123.5 32h-16l-31 32l58 156q-246 45 -394 238q-147 190 -147 467z" />
<glyph unicode="&#xc8;" horiz-adv-x="1071" d="M113 115l116 24v1145l-116 10v121h815l41 -350h-99l-69 211h-430v-504h331v-129h-331v-504h450l72 211h96l-39 -350h-823zM254 1675l76 148l61 14l344 -272l-63 -97z" />
<glyph unicode="&#xc9;" horiz-adv-x="1071" d="M113 115l116 24v1145l-116 10v121h815l41 -350h-99l-69 211h-430v-504h331v-129h-331v-504h450l72 211h96l-39 -350h-823zM354 1565l324 272l61 -14l76 -148l-395 -207z" />
<glyph unicode="&#xca;" horiz-adv-x="1071" d="M113 115l116 24v1145l-116 10v121h815l41 -350h-99l-69 211h-430v-504h331v-129h-331v-504h450l72 211h96l-39 -350h-823zM223 1489l291 321h33l289 -321h-152l-156 129l-153 -129h-152z" />
<glyph unicode="&#xcb;" horiz-adv-x="1071" d="M113 115l116 24v1145l-116 10v121h815l41 -350h-99l-69 211h-430v-504h331v-129h-331v-504h450l72 211h96l-39 -350h-823zM244 1624q0 49 33.5 83t82 34t84 -34t35.5 -83t-35.5 -84t-84 -35t-82 35t-33.5 84zM604 1624q0 49 36 83t85 34t82 -34t33 -83t-33 -84t-82 -35 t-85 35t-36 84z" />
<glyph unicode="&#xcc;" horiz-adv-x="600" d="M82 1675l74 148l63 14l344 -272l-65 -97zM113 1292v123h360l8 -115l-110 -16v-1153l116 -8v-123h-360l-8 115l110 16v1153z" />
<glyph unicode="&#xcd;" horiz-adv-x="600" d="M76 1565l321 272l64 -14l74 -148l-396 -207zM113 1292v123h360l8 -115l-110 -16v-1153l116 -8v-123h-360l-8 115l110 16v1153z" />
<glyph unicode="&#xce;" horiz-adv-x="600" d="M-2 1489l291 321h33l286 -321h-149l-156 129l-153 -129h-152zM113 1292v123h360l8 -115l-110 -16v-1153l116 -8v-123h-360l-8 115l110 16v1153z" />
<glyph unicode="&#xcf;" horiz-adv-x="600" d="M41 1623q0 48 32.5 83t82.5 35q49 0 83.5 -35t34.5 -83t-34.5 -83t-83.5 -35q-50 0 -82.5 35t-32.5 83zM113 1292v123h360l8 -115l-110 -16v-1153l116 -8v-123h-360l-8 115l110 16v1153zM338 1623q0 48 35 83t84 35t81.5 -35t32.5 -83t-32.5 -83t-81.5 -35t-84 35t-35 83 z" />
<glyph unicode="&#xd0;" horiz-adv-x="1241" d="M47 643v113l14 16h170v512l-116 10v121h293q334 0 530 -170q213 -188 213 -530q0 -356 -195 -539q-184 -176 -522 -176h-305l-14 115l116 26v502h-184zM373 139h90q295 0 432 180q111 148 111 404q0 115 -39 218t-113 177q-154 158 -426 158h-55v-504h344q14 0 14 -14 v-115h-358v-504z" />
<glyph unicode="&#xd1;" horiz-adv-x="1349" d="M111 115l118 24v1145l-118 10v121h342l553 -1261v1126l-132 20v115h365l21 -115l-125 -24v-1276h-215l-564 1288v-1153l138 -20v-115h-367zM346 1556v33q41 82 133 119q41 16 108.5 16t122 -34.5t119.5 -79.5l127 102l76 -135q-100 -88 -172 -88q-47 0 -79.5 16.5 t-63.5 36t-63.5 35.5t-88 16t-88.5 -31.5t-55 -68.5z" />
<glyph unicode="&#xd2;" d="M102 702q0 287 136 486q68 100 173 163.5t251 63.5q145 0 250.5 -63.5t172.5 -163.5q133 -201 134 -486q0 -285 -134 -485q-68 -100 -173 -162.5t-250 -62.5q-272 0 -424 225q-135 199 -136 485zM248 698q0 -233 94 -387q109 -180 320 -180q209 0 317 180q94 154 94 387 q0 236 -94 394q-111 184 -317 184q-209 0 -320 -184q-94 -158 -94 -394zM434 1675l74 148l63 14l344 -272l-65 -97z" />
<glyph unicode="&#xd3;" d="M102 702q0 287 136 486q68 100 173 163.5t251 63.5q145 0 250.5 -63.5t172.5 -163.5q133 -201 134 -486q0 -285 -134 -485q-68 -100 -173 -162.5t-250 -62.5q-272 0 -424 225q-135 199 -136 485zM248 698q0 -233 94 -387q109 -180 320 -180q209 0 317 180q94 154 94 387 q0 236 -94 394q-111 184 -317 184q-209 0 -320 -184q-94 -158 -94 -394zM426 1565l324 272l61 -14l76 -148l-395 -207z" />
<glyph unicode="&#xd4;" d="M102 702q0 287 136 486q68 100 173 163.5t251 63.5q145 0 250.5 -63.5t172.5 -163.5q133 -201 134 -486q0 -285 -134 -485q-68 -100 -173 -162.5t-250 -62.5q-272 0 -424 225q-135 199 -136 485zM248 698q0 -233 94 -387q109 -180 320 -180q209 0 317 180q94 154 94 387 q0 236 -94 394q-111 184 -317 184q-209 0 -320 -184q-94 -158 -94 -394zM338 1489l291 321h33l288 -321h-151l-156 129l-154 -129h-151z" />
<glyph unicode="&#xd5;" d="M102 702q0 287 136 486q68 100 173 163.5t251 63.5q145 0 250.5 -63.5t172.5 -163.5q133 -201 134 -486q0 -285 -134 -485q-68 -100 -173 -162.5t-250 -62.5q-272 0 -424 225q-135 199 -136 485zM248 698q0 -233 94 -387q109 -180 320 -180q209 0 317 180q94 154 94 387 q0 236 -94 394q-111 184 -317 184q-209 0 -320 -184q-94 -158 -94 -394zM336 1556v33q41 82 133 119q41 16 108.5 16t122 -34.5t119.5 -79.5l127 102l76 -135q-100 -88 -172 -88q-47 0 -80 16.5t-63.5 36t-63.5 35.5t-88 16t-88 -31.5t-55 -68.5z" />
<glyph unicode="&#xd6;" d="M102 702q0 287 136 486q68 100 173 163.5t251 63.5q145 0 250.5 -63.5t172.5 -163.5q133 -201 134 -486q0 -285 -134 -485q-68 -100 -173 -162.5t-250 -62.5q-272 0 -424 225q-135 199 -136 485zM248 698q0 -233 94 -387q109 -180 320 -180q209 0 317 180q94 154 94 387 q0 236 -94 394q-111 184 -317 184q-209 0 -320 -184q-94 -158 -94 -394zM383 1624q0 49 34 83t82 34t83.5 -34t35.5 -83t-35.5 -84t-83.5 -35t-82 35t-34 84zM743 1624q0 49 36 83t85 34t82 -34t33 -83t-33 -84t-82 -35t-85 35t-36 84z" />
<glyph unicode="&#xd7;" horiz-adv-x="1050" d="M111 381l323 315l-313 324l90 90l315 -326l324 316l90 -92l-324 -316l314 -321l-90 -92l-316 325l-323 -313z" />
<glyph unicode="&#xd8;" d="M102 691q0 140 33 267t101.5 228.5t174 165t239.5 63.5t237 -51l80 162h137l-2 -29l-103 -209q113 -104 166.5 -262t53.5 -305.5t-33 -274.5t-100.5 -228t-173 -163.5t-254 -62.5t-263.5 69l-71 -147h-131l-7 27l103 209q-96 104 -141.5 252.5t-45.5 288.5zM248 698 q0 -252 108 -411l469 952q-78 37 -177 37t-178 -51t-128 -133q-94 -158 -94 -394zM459 188q82 -57 198.5 -57t194.5 49t127 131q94 154 94 387q0 295 -139 457z" />
<glyph unicode="&#xd9;" horiz-adv-x="1286" d="M78 1292v123h362l9 -115l-113 -16v-848q0 -147 84 -227t233 -80q219 0 293 166q25 57 25 141v848l-117 8v123h348l8 -115l-112 -16v-870q0 -197 -133 -312q-127 -111 -324 -110.5t-319 114.5q-125 117 -125 308v870zM387 1675l74 148l63 14l344 -272l-65 -97z" />
<glyph unicode="&#xda;" horiz-adv-x="1286" d="M78 1292v123h362l9 -115l-113 -16v-848q0 -147 84 -227t233 -80q219 0 293 166q25 57 25 141v848l-117 8v123h348l8 -115l-112 -16v-870q0 -197 -133 -312q-127 -111 -324 -110.5t-319 114.5q-125 117 -125 308v870zM449 1565l323 272l62 -14l75 -148l-395 -207z" />
<glyph unicode="&#xdb;" horiz-adv-x="1286" d="M78 1292v123h362l9 -115l-113 -16v-848q0 -147 84 -227t233 -80q219 0 293 166q25 57 25 141v848l-117 8v123h348l8 -115l-112 -16v-870q0 -197 -133 -312q-127 -111 -324 -110.5t-319 114.5q-125 117 -125 308v870zM330 1489l291 321h32l289 -321h-151l-156 129 l-154 -129h-151z" />
<glyph unicode="&#xdc;" horiz-adv-x="1286" d="M78 1292v123h362l9 -115l-113 -16v-848q0 -147 84 -227t233 -80q219 0 293 166q25 57 25 141v848l-117 8v123h348l8 -115l-112 -16v-870q0 -197 -133 -312q-127 -111 -324 -110.5t-319 114.5q-125 117 -125 308v870zM336 1624q0 49 33.5 83t82 34t84 -34t35.5 -83 t-35.5 -84t-84 -35t-82 35t-33.5 84zM696 1624q0 49 36 83t85 34t82 -34t33 -83t-33 -84t-82 -35t-85 35t-36 84z" />
<glyph unicode="&#xdd;" horiz-adv-x="1103" d="M14 1292v123h373v-108l-129 -21l311 -610l287 612l-125 17v110h352v-123l-88 -20l-370 -774v-355l235 -37l-18 -106h-574l-20 106l237 37v383l-383 748zM344 1565l324 272l61 -14l76 -148l-395 -207z" />
<glyph unicode="&#xde;" horiz-adv-x="1024" d="M113 1292v123h362l8 -115l-112 -16v-135h88q358 0 471 -203q43 -76 43 -186q0 -207 -158 -314q-133 -88 -362 -88h-82v-227l225 -27v-104h-467l-10 115l110 16v1153zM371 500h73q270 0 351 131q29 49 28.5 126t-29 126t-79.5 75q-90 49 -269 50h-75v-508z" />
<glyph unicode="&#xdf;" horiz-adv-x="1046" d="M72 0v90l106 23v1030q0 170 84 262q80 84 213 84t218 -76t85 -215q0 -121 -102 -240q-37 -43 -69 -74.5t-32 -51t4.5 -35t16.5 -29.5q25 -31 103.5 -65.5t135 -70.5t91.5 -79q63 -78 63 -213q0 -158 -127 -258q-113 -90 -244 -90q-94 0 -229 49l49 137l180 -69 q113 0 174.5 67.5t61.5 161.5t-52 150.5t-150.5 106.5t-146.5 98t-48 113.5t28.5 107.5t64.5 82t64.5 87t28.5 98.5t-11 82t-34 55.5q-45 53 -123 53q-168 0 -168 -227v-1145h-235z" />
<glyph unicode="&#xe0;" horiz-adv-x="917" d="M84 253q0 114 56.5 177.5t138.5 97.5q131 55 342 62v131q0 66 -49.5 104.5t-131.5 38.5q-98 0 -141 -26l-33 -109l-168 31q35 106 131 166q86 55 199 55q170 0 246 -79t76 -212v-528q0 -59 47 -60q18 0 43 11l22 -78q-43 -43 -112 -43q-94 0 -119 90q-98 -90 -242 -90 q-127 0 -213 71q-92 76 -92 190zM219 266.5q0 -69.5 49 -113.5t125 -44q154 0 228 112v254q-257 0 -359 -98q-43 -41 -43 -110.5zM266 1380l90 109h54l213 -287l-70 -67z" />
<glyph unicode="&#xe1;" horiz-adv-x="917" d="M84 253q0 114 56.5 177.5t138.5 97.5q131 55 342 62v131q0 66 -49.5 104.5t-131.5 38.5q-98 0 -141 -26l-33 -109l-168 31q35 106 131 166q86 55 199 55q170 0 246 -79t76 -212v-528q0 -59 47 -60q18 0 43 11l22 -78q-43 -43 -112 -43q-94 0 -119 90q-98 -90 -242 -90 q-127 0 -213 71q-92 76 -92 190zM219 266.5q0 -69.5 49 -113.5t125 -44q154 0 228 112v254q-257 0 -359 -98q-43 -41 -43 -110.5zM305 1200l213 285h55l91 -107l-287 -245z" />
<glyph unicode="&#xe2;" horiz-adv-x="917" d="M84 253q0 114 56.5 177.5t138.5 97.5q131 55 342 62v131q0 66 -49.5 104.5t-131.5 38.5q-98 0 -141 -26l-33 -109l-168 31q35 106 131 166q86 55 199 55q170 0 246 -79t76 -212v-528q0 -59 47 -60q18 0 43 11l22 -78q-43 -43 -112 -43q-94 0 -119 90q-98 -90 -242 -90 q-127 0 -213 71q-92 76 -92 190zM178 1122l238 293h33l237 -289l-6 -12h-113l-135 119l-135 -119h-111zM219 266.5q0 -69.5 49 -113.5t125 -44q154 0 228 112v254q-257 0 -359 -98q-43 -41 -43 -110.5z" />
<glyph unicode="&#xe3;" horiz-adv-x="917" d="M84 253q0 114 56.5 177.5t138.5 97.5q131 55 342 62v131q0 66 -49.5 104.5t-131.5 38.5q-98 0 -141 -26l-33 -109l-168 31q35 106 131 166q86 55 199 55q170 0 246 -79t76 -212v-528q0 -59 47 -60q18 0 43 11l22 -78q-43 -43 -112 -43q-94 0 -119 90q-98 -90 -242 -90 q-127 0 -213 71q-92 76 -92 190zM147 1188l3 35q29 49 72.5 92t117.5 43q45 0 94 -23.5t77 -38t52 -22.5l109 84l76 -127q-41 -35 -78 -56.5t-83 -21.5t-75 12.5t-54.5 25.5t-50 25.5t-53.5 12.5q-84 -8 -118 -94zM219 266.5q0 -69.5 49 -113.5t125 -44q154 0 228 112v254 q-257 0 -359 -98q-43 -41 -43 -110.5z" />
<glyph unicode="&#xe4;" horiz-adv-x="917" d="M84 253q0 114 56.5 177.5t138.5 97.5q131 55 342 62v131q0 66 -49.5 104.5t-131.5 38.5q-98 0 -141 -26l-33 -109l-168 31q35 106 131 166q86 55 199 55q170 0 246 -79t76 -212v-528q0 -59 47 -60q18 0 43 11l22 -78q-43 -43 -112 -43q-94 0 -119 90q-98 -90 -242 -90 q-127 0 -213 71q-92 76 -92 190zM182 1269q0 40 29 69.5t70 29.5t70.5 -29.5t29.5 -69.5t-29.5 -71t-70.5 -31t-70 31t-29 71zM219 266.5q0 -69.5 49 -113.5t125 -44q154 0 228 112v254q-257 0 -359 -98q-43 -41 -43 -110.5zM469 1269q0 40 27.5 69.5t68.5 29.5t70 -29.5 t29 -69.5t-29 -71t-70 -31t-68.5 31t-27.5 71z" />
<glyph unicode="&#xe5;" horiz-adv-x="917" d="M84 253q0 114 56.5 177.5t138.5 97.5q131 55 342 62v131q0 66 -49.5 104.5t-131.5 38.5q-98 0 -141 -26l-33 -109l-168 31q35 106 131 166q86 55 199 55q170 0 246 -79t76 -212v-528q0 -59 47 -60q18 0 43 11l22 -78q-43 -43 -112 -43q-94 0 -119 90q-98 -90 -242 -90 q-127 0 -213 71q-92 76 -92 190zM219 266.5q0 -69.5 49 -113.5t125 -44q154 0 228 112v254q-257 0 -359 -98q-43 -41 -43 -110.5zM254 1230q0 79 53 132t131 53t131.5 -53t53.5 -132t-53.5 -132.5t-131.5 -53.5t-131 53.5t-53 132.5zM360 1230q0 -36 21.5 -56.5t56.5 -20.5 t56.5 20.5t21.5 56.5t-21.5 56.5t-56.5 20.5t-56.5 -20.5t-21.5 -56.5z" />
<glyph unicode="&#xe6;" horiz-adv-x="1429" d="M84 249q0 101 43 159.5t113 89.5q111 49 331 49h50v174q0 43 -35 78q-70 66 -164 65q-92 0 -123 -26l-33 -109l-168 31q14 102 119 166q94 55 197 55q238 0 309 -164q59 80 144 124t180 44q141 0 227 -67.5t86 -183.5t-50 -175t-128 -88q-117 -43 -351 -43h-75 q10 -166 116 -252q78 -61 197 -61.5t195 71.5l36 -112q-47 -37 -106 -57.5t-156 -20.5q-215 0 -329 166q-4 -10 -10.5 -17.5t-10.5 -15.5q-51 -59 -92 -84q-88 -53 -180 -53t-151.5 22.5t-100.5 59.5q-80 74 -80 175zM219 263.5q0 -64.5 53.5 -108.5t133 -44t136 35.5 t79.5 72.5v213h-68q-158 0 -216 -20.5t-88 -52t-30 -96zM760 547l114 -2q350 0 351 164q0 78 -56.5 117.5t-117 39.5t-106.5 -19.5t-85 -58.5q-84 -83 -100 -241z" />
<glyph unicode="&#xe7;" horiz-adv-x="831" d="M88 477q0 342 229 461q80 43 183 43q182 0 284 -76l-90 -141l-121 96q-16 4 -38 4h-35q-152 0 -221 -125q-55 -100 -56 -264q0 -250 158 -336q57 -31 159.5 -30.5t196.5 55.5l35 -101q-80 -61 -207 -69l-20 -60q61 -4 94 -34q63 -53 63 -128t-52 -124t-156 -49 q-55 0 -95.5 13t-76.5 28l63 122l113 -69q41 0 67.5 20.5t26.5 52t-30 58t-103 26.5h-13l-26 27l41 117q-182 14 -285 160q-88 127 -88 323z" />
<glyph unicode="&#xe8;" horiz-adv-x="907" d="M86 475q0 217 113 356q119 150 317 150q129 0 215 -72q90 -74 90 -190.5t-56 -182t-144 -100.5q-145 -57 -394 -57q20 -119 95 -196t216.5 -77t241.5 74l35 -110q-106 -78 -285 -78q-215 0 -333 141q-111 131 -111 342zM221 500h35q182 0 260 25.5t124 67.5t46 120 q0 76 -55 116q-47 35 -118 35t-124 -29.5t-90 -80.5q-74 -104 -78 -254zM264 1378l90 109h54l213 -287l-70 -67z" />
<glyph unicode="&#xe9;" horiz-adv-x="907" d="M86 475q0 217 113 356q119 150 317 150q129 0 215 -72q90 -74 90 -190.5t-56 -182t-144 -100.5q-145 -57 -394 -57q20 -119 95 -196t216.5 -77t241.5 74l35 -110q-106 -78 -285 -78q-215 0 -333 141q-111 131 -111 342zM221 500h35q182 0 260 25.5t124 67.5t46 120 q0 76 -55 116q-47 35 -118 35t-124 -29.5t-90 -80.5q-74 -104 -78 -254zM362 1200l213 285h56l90 -107l-287 -245z" />
<glyph unicode="&#xea;" horiz-adv-x="907" d="M86 475q0 217 113 356q119 150 317 150q129 0 215 -72q90 -74 90 -190.5t-56 -182t-144 -100.5q-145 -57 -394 -57q20 -119 95 -196t216.5 -77t241.5 74l35 -110q-106 -78 -285 -78q-215 0 -333 141q-111 131 -111 342zM221 500h35q182 0 260 25.5t124 67.5t46 120 q0 76 -55 116q-47 35 -118 35t-124 -29.5t-90 -80.5q-74 -104 -78 -254zM246 1122l237 293h33l238 -289l-6 -12h-113l-135 119l-135 -119h-111z" />
<glyph unicode="&#xeb;" horiz-adv-x="907" d="M86 475q0 217 113 356q119 150 317 150q129 0 215 -72q90 -74 90 -190.5t-56 -182t-144 -100.5q-145 -57 -394 -57q20 -119 95 -196t216.5 -77t241.5 74l35 -110q-106 -78 -285 -78q-215 0 -333 141q-111 131 -111 342zM221 500h35q182 0 260 25.5t124 67.5t46 120 q0 76 -55 116q-47 35 -118 35t-124 -29.5t-90 -80.5q-74 -104 -78 -254zM250 1269q0 40 28.5 69.5t69.5 29.5t71 -29.5t30 -69.5t-30 -71t-71 -31t-69.5 31t-28.5 71zM537 1269q0 40 27.5 69.5t68.5 29.5t69.5 -29.5t28.5 -69.5t-28.5 -71t-69.5 -31t-68.5 31t-27.5 71z" />
<glyph unicode="&#xec;" horiz-adv-x="509" d="M70 948l202 37l56 -61v-803l125 -31v-90h-359l-18 88l123 31v733l-111 -8zM70 1380l90 109h53l213 -287l-70 -67z" />
<glyph unicode="&#xed;" horiz-adv-x="509" d="M70 948l202 37l56 -61v-803l125 -31v-90h-359l-18 88l123 31v733l-111 -8zM80 1198l213 285h55l90 -107l-286 -246z" />
<glyph unicode="&#xee;" horiz-adv-x="509" d="M-23 1122l238 293h33l237 -289l-8 -12h-110l-136 119l-137 -119h-108zM70 948l202 37l56 -61v-803l125 -31v-90h-359l-18 88l123 31v733l-111 -8z" />
<glyph unicode="&#xef;" horiz-adv-x="509" d="M6 1269q0 40 28.5 69.5t69.5 29.5t70 -29.5t29 -69.5t-29 -71t-70 -31t-69.5 31t-28.5 71zM70 948l202 37l56 -61v-803l125 -31v-90h-359l-18 88l123 31v733l-111 -8zM270 1269q0 40 28 69.5t69 29.5t69.5 -29.5t28.5 -69.5t-28.5 -71t-69.5 -31t-69 31t-28 71z" />
<glyph unicode="&#xf0;" horiz-adv-x="1046" d="M88 473q0 203 109 334q111 131 288 131q178 0 289 -96q-41 152 -131 272l-240 -127l-57 94l217 125q-100 100 -237 176l59 109q162 -78 293 -217l244 143l67 -121l-231 -120q182 -252 182 -566q0 -408 -209 -559q-82 -59 -201.5 -59t-199.5 38t-133 103 q-109 129 -109 340zM227 471q0 -184 92 -283q74 -80 177.5 -79.5t159 43.5t85.5 110q53 113 58 301q-12 121 -109 195q-84 63 -205 63q-57 0 -106 -26.5t-84 -73.5q-68 -96 -68 -250z" />
<glyph unicode="&#xf1;" horiz-adv-x="1034" d="M66 948l206 37l45 -84q115 80 254.5 80t215 -75t75.5 -222v-565l125 -29v-90h-369l-8 90l123 29v551q0 194 -174 194q-137 0 -235 -86v-657l125 -31v-90h-355l-12 88l113 31v741l-111 -8zM236 1188l2 35q29 49 72.5 92t117.5 43q45 0 94 -23.5t77 -38t52 -22.5l109 84 l76 -127q-41 -35 -78 -56.5t-83 -21.5t-75 12.5t-54.5 25.5t-50 25.5t-53.5 12.5q-84 -8 -118 -94z" />
<glyph unicode="&#xf2;" horiz-adv-x="1001" d="M86 494q0 96 26.5 186t80.5 158q113 147 307 147q207 0 315 -151q100 -137 100 -342t-100 -345q-109 -156 -315 -155q-199 0 -314 155q-100 138 -100 347zM221 462.5q0 -61.5 15.5 -125t50.5 -112.5q76 -115 213 -114q145 0 219 118q61 100 61 252q0 248 -149 350 q-53 35 -132 35t-132.5 -41t-85 -100t-46 -130t-14.5 -132.5zM362 1378l91 109h53l213 -287l-70 -67z" />
<glyph unicode="&#xf3;" horiz-adv-x="1001" d="M86 494q0 96 26.5 186t80.5 158q113 147 307 147q207 0 315 -151q100 -137 100 -342t-100 -345q-109 -156 -315 -155q-199 0 -314 155q-100 138 -100 347zM221 462.5q0 -61.5 15.5 -125t50.5 -112.5q76 -115 213 -114q145 0 219 118q61 100 61 252q0 248 -149 350 q-53 35 -132 35t-132.5 -41t-85 -100t-46 -130t-14.5 -132.5zM348 1200l213 285h55l91 -107l-287 -245z" />
<glyph unicode="&#xf4;" horiz-adv-x="1001" d="M86 494q0 96 26.5 186t80.5 158q113 147 307 147q207 0 315 -151q100 -137 100 -342t-100 -345q-109 -156 -315 -155q-199 0 -314 155q-100 138 -100 347zM221 462.5q0 -61.5 15.5 -125t50.5 -112.5q76 -115 213 -114q145 0 219 118q61 100 61 252q0 248 -149 350 q-53 35 -132 35t-132.5 -41t-85 -100t-46 -130t-14.5 -132.5zM250 1122l237 293h33l236 -289l-6 -12h-111l-137 119l-135 -119h-109z" />
<glyph unicode="&#xf5;" horiz-adv-x="1001" d="M86 494q0 96 26.5 186t80.5 158q113 147 307 147q207 0 315 -151q100 -137 100 -342t-100 -345q-109 -156 -315 -155q-199 0 -314 155q-100 138 -100 347zM193 1188l2 35q29 49 72.5 92t117.5 43q45 0 94 -23.5t77 -38t52 -22.5l109 84l76 -127q-41 -35 -78 -56.5 t-83 -21.5t-75 12.5t-54.5 25.5t-50 25.5t-53.5 12.5q-84 -8 -118 -94zM221 462.5q0 -61.5 15.5 -125t50.5 -112.5q76 -115 213 -114q145 0 219 118q61 100 61 252q0 248 -149 350q-53 35 -132 35t-132.5 -41t-85 -100t-46 -130t-14.5 -132.5z" />
<glyph unicode="&#xf6;" horiz-adv-x="1001" d="M86 494q0 96 26.5 186t80.5 158q113 147 307 147q207 0 315 -151q100 -137 100 -342t-100 -345q-109 -156 -315 -155q-199 0 -314 155q-100 138 -100 347zM221 462.5q0 -61.5 15.5 -125t50.5 -112.5q76 -115 213 -114q145 0 219 118q61 100 61 252q0 248 -149 350 q-53 35 -132 35t-132.5 -41t-85 -100t-46 -130t-14.5 -132.5zM270 1269q0 40 29 69.5t70 29.5t70.5 -29.5t29.5 -69.5t-29.5 -71t-70.5 -31t-70 31t-29 71zM557 1269q0 40 27.5 69.5t68.5 29.5t70 -29.5t29 -69.5t-29 -71t-70 -31t-68.5 31t-27.5 71z" />
<glyph unicode="&#xf7;" horiz-adv-x="847" d="M115 608v129h618v-129h-618zM322 372q0 44 31.5 75.5t75.5 31.5t75 -31.5t31 -75.5t-31 -75t-75 -31t-75.5 31t-31.5 75zM322 966q0 44 31.5 75.5t75.5 31.5t75 -31.5t31 -75.5t-31 -75t-75 -31t-75.5 31t-31.5 75z" />
<glyph unicode="&#xf8;" horiz-adv-x="1001" d="M86 481.5q0 108.5 26.5 198.5t79 157.5t129 107.5t172 40t183.5 -37l141 285h105l-2 -31l-156 -311q78 -70 114.5 -176.5t36.5 -213t-24.5 -195.5t-75.5 -159q-109 -156 -315 -155q-90 0 -168 33l-105 -209h-98l-6 26l121 242q-82 72 -120 180.5t-38 217zM221 467 q0 -162 82 -264l315 633q-53 31 -125.5 30.5t-126 -41.5t-83.5 -100q-61 -113 -62 -258zM387 135q49 -25 120 -24.5t125 33t87 85.5q61 100 61 252q0 166 -80 283z" />
<glyph unicode="&#xf9;" horiz-adv-x="1003" d="M39 948l207 37l51 -57v-602q0 -137 76 -187q45 -29 115.5 -28.5t131 29t85.5 67.5v643h-111l-14 98l204 39l50 -59v-778q0 -45 47 -46l37 7l16 -72q-12 -14 -43 -30.5t-74 -16.5q-81 0 -104 84q-102 -84 -240 -84q-209 0 -280 172q-25 61 -25 155v531h-111zM258 1378 l90 109h53l213 -287l-69 -67z" />
<glyph unicode="&#xfa;" horiz-adv-x="1003" d="M39 948l207 37l51 -57v-602q0 -137 76 -187q45 -29 115.5 -28.5t131 29t85.5 67.5v643h-111l-14 98l204 39l50 -59v-778q0 -45 47 -46l37 7l16 -72q-12 -14 -43 -30.5t-74 -16.5q-81 0 -104 84q-102 -84 -240 -84q-209 0 -280 172q-25 61 -25 155v531h-111zM348 1200 l213 285h55l91 -107l-287 -245z" />
<glyph unicode="&#xfb;" horiz-adv-x="1003" d="M39 948l207 37l51 -57v-602q0 -137 76 -187q45 -29 115.5 -28.5t131 29t85.5 67.5v643h-111l-14 98l204 39l50 -59v-778q0 -45 47 -46l37 7l16 -72q-12 -14 -43 -30.5t-74 -16.5q-81 0 -104 84q-102 -84 -240 -84q-209 0 -280 172q-25 61 -25 155v531h-111zM233 1122 l238 293h33l237 -289l-8 -12h-110l-136 119l-137 -119h-108z" />
<glyph unicode="&#xfc;" horiz-adv-x="1003" d="M39 948l207 37l51 -57v-602q0 -137 76 -187q45 -29 115.5 -28.5t131 29t85.5 67.5v643h-111l-14 98l204 39l50 -59v-778q0 -45 47 -46l37 7l16 -72q-12 -14 -43 -30.5t-74 -16.5q-81 0 -104 84q-102 -84 -240 -84q-209 0 -280 172q-25 61 -25 155v531h-111zM266 1269 q0 40 29 69.5t70 29.5t69.5 -29.5t28.5 -69.5t-28.5 -71t-69.5 -31t-70 31t-29 71zM551 1269q0 40 27.5 69.5t68.5 29.5t71 -29.5t30 -69.5t-30 -71t-71 -31t-68.5 31t-27.5 71z" />
<glyph unicode="&#xfd;" horiz-adv-x="919" d="M6 971l195 12l280 -872l271 759h-74l-16 101l196 12l35 -72q-98 -268 -211 -576t-180.5 -487.5t-88 -227.5t-48.5 -87q-66 -92 -162 -92q-86 0 -180 74l63 106q61 -61 119 -61q74 0 127 129q12 35 22 65l54 150l-316 966h-69zM360 1200l213 285h56l90 -107l-287 -245z " />
<glyph unicode="&#xfe;" horiz-adv-x="995" d="M12 1468l215 37l56 -59v-537q88 76 225 76q170 0 283 -129q119 -137 118 -358q0 -270 -151 -404q-63 -57 -137 -79.5t-132 -22.5q-125 0 -213 57l7 -149v-326l247 -43v-90h-479l-18 90l121 29v1812l-125 -8zM283 178q22 -22 73.5 -44.5t109.5 -22.5t110.5 15t95.5 58 q100 96 100 301t-94 303q-74 78 -182 78q-70 0 -128.5 -28.5t-84.5 -77.5v-582z" />
<glyph unicode="&#xff;" horiz-adv-x="919" d="M6 971l195 12l280 -872l271 759h-74l-16 101l196 12l35 -72q-98 -268 -211 -576t-180.5 -487.5t-88 -227.5t-48.5 -87q-66 -92 -162 -92q-86 0 -180 74l63 106q61 -61 119 -61q74 0 127 129q12 35 22 65l54 150l-316 966h-69zM225 1269q0 40 29 69.5t70 29.5t69.5 -29.5 t28.5 -69.5t-28.5 -71t-69.5 -31t-70 31t-29 71zM510 1269q0 40 27.5 69.5t68.5 29.5t71 -29.5t30 -69.5t-30 -71t-71 -31t-68.5 31t-27.5 71z" />
<glyph unicode="&#x152;" horiz-adv-x="1757" d="M98 702q0 125 36 254t106.5 232.5t176 169t245.5 65.5h24q70 0 127 -8h801l41 -350h-99l-69 211h-430v-504h352v-129h-352v-504h450l72 211h96l-39 -350h-843q-57 -8 -115 -8q-279 0 -438 225q-141 201 -142 485zM244 698q0 -229 104 -387q53 -82 135 -131t214 -49 t218 78v1001q-47 41 -100 54.5t-142 13.5t-172 -51t-141 -133q-117 -174 -116 -396z" />
<glyph unicode="&#x153;" horiz-adv-x="1601" d="M86 492q0 209 107 346q113 147 307 147q135 0 222 -60.5t134 -156.5q57 98 149.5 156.5t204.5 58.5q129 0 215 -70q90 -76 90.5 -192.5t-53 -182t-139.5 -100.5q-139 -57 -401 -57q20 -119 95 -195.5t216 -76.5t242 73l34 -110q-106 -78 -284 -78q-260 0 -377 203 q-109 -205 -348 -205q-199 0 -314 155q-100 137 -100 345zM221 462.5q0 -61.5 15.5 -125t50.5 -112.5q76 -115 213 -114q141 0 215 114q61 92 65 242v14q0 248 -149 350q-53 35 -132 35t-132.5 -41t-85 -100t-46 -130t-14.5 -132.5zM915 502h35q182 0 260 25.5t124 67.5 t46 120q0 76 -55 116q-47 35 -117.5 35t-124 -29.5t-88.5 -78.5q-76 -106 -80 -256z" />
<glyph unicode="&#x2000;" horiz-adv-x="918" />
<glyph unicode="&#x2001;" horiz-adv-x="1837" />
<glyph unicode="&#x2002;" horiz-adv-x="918" />
<glyph unicode="&#x2003;" horiz-adv-x="1837" />
<glyph unicode="&#x2004;" horiz-adv-x="612" />
<glyph unicode="&#x2005;" horiz-adv-x="459" />
<glyph unicode="&#x2006;" horiz-adv-x="306" />
<glyph unicode="&#x2007;" horiz-adv-x="306" />
<glyph unicode="&#x2008;" horiz-adv-x="229" />
<glyph unicode="&#x2009;" horiz-adv-x="367" />
<glyph unicode="&#x200a;" horiz-adv-x="102" />
<glyph unicode="&#x2010;" horiz-adv-x="772" d="M129 514v113l16 16h486q12 0 12 -14v-115h-514z" />
<glyph unicode="&#x2011;" horiz-adv-x="772" d="M129 514v113l16 16h486q12 0 12 -14v-115h-514z" />
<glyph unicode="&#x2012;" horiz-adv-x="772" d="M129 514v113l16 16h486q12 0 12 -14v-115h-514z" />
<glyph unicode="&#x2013;" horiz-adv-x="1013" d="M125 616v127h760v-127h-760z" />
<glyph unicode="&#x2014;" horiz-adv-x="1484" d="M125 616v127h1231v-127h-1231z" />
<glyph unicode="&#x2018;" horiz-adv-x="382" d="M94 1087q0 176 115 347l88 -52v-20l-68 -178l47 -238l-159 -26q-23 80 -23 167z" />
<glyph unicode="&#x2019;" horiz-adv-x="370" d="M84 973v20l68 178l-48 238l160 27q23 -90 23 -174q0 -170 -115 -340z" />
<glyph unicode="&#x201a;" horiz-adv-x="423" d="M92 -162l80 180l-80 203l172 58q49 -98 49 -169t-16 -121t-39 -93q-37 -68 -92 -132l-74 46v28z" />
<glyph unicode="&#x201c;" horiz-adv-x="604" d="M98 1155q0 162 115 332l88 -51v-21l-68 -178l48 -264l-160 -33q-2 6 -5 26.5t-7 47.5q-10 68 -11 141zM326 1141q0 176 114 346l88 -51v-21l-67 -178l47 -238l-160 -26q-23 80 -22 168z" />
<glyph unicode="&#x201d;" horiz-adv-x="598" d="M84 973v20l68 178l-48 238l160 27q23 -90 23 -174q0 -170 -115 -340zM311 973v20l68 178l-47 265l160 32q23 -90 22 -190q0 -186 -115 -356z" />
<glyph unicode="&#x201e;" horiz-adv-x="657" d="M84 -162l80 180l-80 203l172 58q49 -98 49 -169t-16.5 -121t-38.5 -93q-37 -68 -92 -132l-74 46v28zM326 -162l80 180l-80 250l172 51q25 -49 37 -122.5t12 -115.5t-16.5 -92t-38.5 -93q-37 -68 -93 -132l-73 46v28z" />
<glyph unicode="&#x2022;" horiz-adv-x="516" d="M100 784q0 66 46.5 113t111.5 47q66 0 113 -47t47 -113t-47 -111.5t-113 -45.5t-112 45.5t-46 111.5z" />
<glyph unicode="&#x202f;" horiz-adv-x="367" />
<glyph unicode="&#x2039;" horiz-adv-x="718" d="M29 590v53l559 442l10 -4v-143l-405 -322l405 -319v-147l-12 -7z" />
<glyph unicode="&#x203a;" horiz-adv-x="718" d="M121 150v147l405 319l-405 322v143l10 4l559 -442v-53l-557 -447z" />
<glyph unicode="&#x205f;" horiz-adv-x="459" />
<glyph unicode="&#x20ac;" horiz-adv-x="1173" d="M70 506v129h143v82q0 20 2 43h-145v129h157q59 379 318 487q90 39 190 39q168 0 297 -26l45 -324h-116l-58 201q-16 2 -46 6t-106.5 4t-144 -29.5t-114.5 -81.5q-86 -94 -119 -276h563v-129h-576q-2 -16 -2 -35v-90h576v-129h-563q27 -176 112 -268q100 -106 268 -106.5 t281 71.5l51 -125q-53 -37 -139 -61.5t-195.5 -24.5t-206 38t-161.5 105q-127 129 -158 371h-153z" />
<glyph unicode="&#xe000;" horiz-adv-x="983" d="M0 0v983h983v-983h-983z" />
</font>
</defs>
</svg>
